G04*
G04 #@! TF.GenerationSoftware,Altium Limited,Altium Designer,23.0.1 (38)*
G04*
G04 Layer_Physical_Order=1*
G04 Layer_Color=255*
%FSLAX44Y44*%
%MOMM*%
G71*
G04*
G04 #@! TF.SameCoordinates,66AEFAA1-34A9-43E5-A2FE-9B35775F3597*
G04*
G04*
G04 #@! TF.FilePolarity,Positive*
G04*
G01*
G75*
%ADD11C,0.1500*%
%ADD12R,0.9000X0.7000*%
%ADD13R,0.9000X0.6000*%
%ADD14R,1.5000X0.8200*%
%ADD15R,0.7000X0.9000*%
%ADD16R,0.3000X1.0000*%
%ADD17R,0.6000X1.0000*%
%ADD18R,0.7800X0.6800*%
%ADD19R,0.6000X0.9000*%
%ADD20R,0.8000X1.6000*%
%ADD21R,2.1000X3.0000*%
%ADD22R,1.5000X0.3000*%
%ADD23R,0.3000X1.5000*%
%ADD39C,0.3000*%
%ADD40C,0.5000*%
%ADD41C,0.2540*%
%ADD42O,1.0000X2.2000*%
%ADD43O,1.0000X1.8000*%
%ADD44C,5.1000*%
%ADD45C,0.5000*%
G36*
X2070000Y70000D02*
Y2294D01*
X1890000D01*
Y70000D01*
X1920000Y100000D01*
X1966756D01*
X1974582Y92173D01*
X1974096Y91000D01*
X1966500D01*
Y79000D01*
X1976206D01*
Y77294D01*
X1970000D01*
X1969122Y77119D01*
X1968378Y76622D01*
X1968378Y76622D01*
X1965878Y74122D01*
X1965381Y73378D01*
X1965256Y72751D01*
X1955578D01*
Y75000D01*
X1955500Y75394D01*
Y75796D01*
X1955346Y76167D01*
X1955268Y76561D01*
X1955045Y76895D01*
X1954891Y77266D01*
X1954607Y77550D01*
X1954487Y77730D01*
X1954662Y78389D01*
X1954999Y79000D01*
X1963500D01*
Y91000D01*
X1953500D01*
Y88953D01*
X1952266Y88391D01*
X1950796Y89000D01*
X1949204D01*
X1947734Y88391D01*
X1946500Y88953D01*
Y91000D01*
X1936500D01*
Y79000D01*
X1939501D01*
X1939838Y78389D01*
X1940013Y77730D01*
X1939893Y77550D01*
X1939609Y77266D01*
X1939455Y76895D01*
X1939232Y76561D01*
X1939154Y76167D01*
X1939000Y75796D01*
Y75394D01*
X1938922Y75000D01*
Y72751D01*
X1938500D01*
Y69247D01*
X1937230Y68852D01*
X1936436Y69887D01*
X1935078Y70929D01*
X1933497Y71584D01*
X1933070Y71640D01*
Y61251D01*
Y50862D01*
X1933497Y50918D01*
X1935078Y51574D01*
X1936436Y52615D01*
X1937478Y53973D01*
X1937716Y54549D01*
X1937823Y54554D01*
X1939000Y54250D01*
Y54204D01*
X1939154Y53833D01*
X1939232Y53439D01*
X1939455Y53105D01*
X1939609Y52734D01*
X1939893Y52450D01*
X1940116Y52116D01*
X1940450Y51893D01*
X1940734Y51609D01*
X1941105Y51455D01*
X1941439Y51232D01*
X1941833Y51154D01*
X1942204Y51000D01*
X1942606D01*
X1943000Y50922D01*
X1943394Y51000D01*
X1943796D01*
X1944167Y51154D01*
X1944561Y51232D01*
X1944895Y51455D01*
X1945266Y51609D01*
X1945550Y51893D01*
X1945884Y52116D01*
X1946107Y52450D01*
X1946391Y52734D01*
X1946544Y53105D01*
X1946552Y53107D01*
X1946780Y53172D01*
X1947720D01*
X1947948Y53107D01*
X1947955Y53105D01*
X1948109Y52734D01*
X1948393Y52450D01*
X1948616Y52116D01*
X1948950Y51893D01*
X1949234Y51609D01*
X1949605Y51455D01*
X1949939Y51232D01*
X1950333Y51154D01*
X1950704Y51000D01*
X1951106D01*
X1951500Y50922D01*
X1951894Y51000D01*
X1952296D01*
X1952667Y51154D01*
X1953061Y51232D01*
X1953395Y51455D01*
X1953766Y51609D01*
X1954050Y51893D01*
X1954384Y52116D01*
X1954607Y52450D01*
X1954891Y52734D01*
X1955045Y53105D01*
X1955268Y53439D01*
X1955346Y53833D01*
X1955500Y54204D01*
Y54606D01*
X1955578Y55000D01*
Y59751D01*
X1960255D01*
X1960381Y59122D01*
X1960878Y58378D01*
X1980878Y38378D01*
X1981622Y37881D01*
X1982500Y37706D01*
X2027500D01*
X2028378Y37881D01*
X2029122Y38378D01*
X2032230Y41486D01*
X2033500Y40960D01*
Y39000D01*
X2043500D01*
Y51000D01*
X2033500D01*
Y47294D01*
X2032500D01*
X2031622Y47119D01*
X2030878Y46622D01*
X2026550Y42294D01*
X1983450D01*
X1967166Y58578D01*
X1967652Y59751D01*
X1970255D01*
X1970381Y59122D01*
X1970878Y58378D01*
X1973378Y55878D01*
X1974122Y55381D01*
X1975000Y55206D01*
X1980000D01*
X1980878Y55381D01*
X1981622Y55878D01*
X1984122Y58378D01*
X1984619Y59122D01*
X1984745Y59751D01*
X1990206D01*
Y52500D01*
X1990381Y51622D01*
X1990878Y50878D01*
X1995878Y45878D01*
X1996622Y45381D01*
X1997500Y45206D01*
X2020000D01*
X2020878Y45381D01*
X2021622Y45878D01*
X2032230Y56486D01*
X2033500Y55960D01*
Y54000D01*
X2043500D01*
Y66000D01*
X2033500D01*
Y62294D01*
X2032500D01*
X2031622Y62119D01*
X2030878Y61622D01*
X2025966Y56710D01*
X2024850Y57209D01*
X2024756Y57296D01*
Y59981D01*
X2018200D01*
Y61251D01*
X2016930D01*
Y71640D01*
X2016503Y71584D01*
X2014922Y70929D01*
X2013564Y69887D01*
X2012770Y68852D01*
X2011500Y69247D01*
Y72751D01*
X2011078D01*
Y75000D01*
X2011000Y75394D01*
Y75796D01*
X2010846Y76167D01*
X2010768Y76561D01*
X2010545Y76895D01*
X2010391Y77266D01*
X2010107Y77550D01*
X2009884Y77884D01*
X2009550Y78107D01*
X2009266Y78391D01*
X2008895Y78545D01*
X2008561Y78768D01*
X2008167Y78846D01*
X2007796Y79000D01*
X2007394Y79000D01*
X2007000Y79078D01*
X2006500Y80274D01*
Y81047D01*
X2007734Y81609D01*
X2009204Y81000D01*
X2010796D01*
X2012266Y81609D01*
X2013391Y82734D01*
X2014000Y84204D01*
Y85796D01*
X2013391Y87266D01*
X2012266Y88391D01*
X2010796Y89000D01*
X2009204D01*
X2007734Y88391D01*
X2006500Y88953D01*
Y91000D01*
X1996500D01*
Y79000D01*
X1996500D01*
X1996121Y77887D01*
X1996116Y77884D01*
X1995893Y77550D01*
X1995609Y77266D01*
X1995455Y76895D01*
X1995232Y76561D01*
X1995154Y76167D01*
X1995000Y75796D01*
Y75394D01*
X1994922Y75000D01*
Y72751D01*
X1984645D01*
X1984619Y72879D01*
X1984122Y73623D01*
X1984122Y73623D01*
X1983794Y73951D01*
Y79000D01*
X1993500D01*
Y91000D01*
X1983794D01*
Y92743D01*
X1983619Y93621D01*
X1983122Y94365D01*
X1978660Y98827D01*
X1979146Y100000D01*
X2040000D01*
X2070000Y70000D01*
D02*
G37*
%LPC*%
G36*
X1933500Y91000D02*
X1923500D01*
Y88953D01*
X1922266Y88391D01*
X1920796Y89000D01*
X1919204D01*
X1917734Y88391D01*
X1916609Y87266D01*
X1916000Y85796D01*
Y84204D01*
X1916609Y82734D01*
X1917734Y81609D01*
X1919204Y81000D01*
X1920796D01*
X1922266Y81609D01*
X1923500Y81047D01*
Y79000D01*
X1933500D01*
Y91000D01*
D02*
G37*
G36*
X2019470Y71640D02*
Y62521D01*
X2024756D01*
Y65251D01*
X2024533Y66948D01*
X2023878Y68529D01*
X2022836Y69887D01*
X2021478Y70929D01*
X2019897Y71584D01*
X2019470Y71640D01*
D02*
G37*
G36*
X1930530D02*
X1930103Y71584D01*
X1928522Y70929D01*
X1927164Y69887D01*
X1926122Y68529D01*
X1925467Y66948D01*
X1925244Y65251D01*
Y62521D01*
X1930530D01*
Y71640D01*
D02*
G37*
G36*
X2056500Y66000D02*
X2046500D01*
Y54000D01*
X2056500D01*
Y56047D01*
X2057734Y56609D01*
X2059204Y56000D01*
X2060796D01*
X2062266Y56609D01*
X2063391Y57734D01*
X2064000Y59204D01*
Y60796D01*
X2063391Y62266D01*
X2062266Y63391D01*
X2060796Y64000D01*
X2059204D01*
X2057734Y63391D01*
X2056500Y63953D01*
Y66000D01*
D02*
G37*
G36*
X1930530Y59981D02*
X1925244D01*
Y57251D01*
X1925467Y55554D01*
X1926122Y53973D01*
X1927164Y52615D01*
X1928522Y51574D01*
X1930103Y50918D01*
X1930530Y50862D01*
Y59981D01*
D02*
G37*
G36*
X2056500Y51000D02*
X2046500D01*
Y39000D01*
X2056500D01*
Y41047D01*
X2057734Y41609D01*
X2059204Y41000D01*
X2060796D01*
X2062266Y41609D01*
X2063391Y42734D01*
X2064000Y44204D01*
Y45796D01*
X2063391Y47266D01*
X2062266Y48391D01*
X2060796Y49000D01*
X2059204D01*
X2057734Y48391D01*
X2056500Y48953D01*
Y51000D01*
D02*
G37*
G36*
X2043500Y36000D02*
X2039770D01*
Y31270D01*
X2043500D01*
Y36000D01*
D02*
G37*
G36*
X2037230D02*
X2033500D01*
Y31270D01*
X2037230D01*
Y36000D01*
D02*
G37*
G36*
X2056500D02*
X2046500D01*
Y24000D01*
X2056500D01*
Y26047D01*
X2057734Y26609D01*
X2059204Y26000D01*
X2060796D01*
X2062266Y26609D01*
X2063391Y27734D01*
X2064000Y29204D01*
Y30796D01*
X2063391Y32266D01*
X2062266Y33391D01*
X2060796Y34000D01*
X2059204D01*
X2057734Y33391D01*
X2056500Y33953D01*
Y36000D01*
D02*
G37*
G36*
X2043500Y28730D02*
X2039770D01*
Y24000D01*
X2043500D01*
Y28730D01*
D02*
G37*
G36*
X2037230D02*
X2033500D01*
Y24000D01*
X2037230D01*
Y28730D01*
D02*
G37*
G36*
X2019470Y33640D02*
Y22521D01*
X2024756D01*
Y27251D01*
X2024533Y28948D01*
X2023878Y30529D01*
X2022836Y31887D01*
X2021478Y32929D01*
X2019897Y33584D01*
X2019470Y33640D01*
D02*
G37*
G36*
X2016930Y33640D02*
X2016503Y33584D01*
X2014922Y32929D01*
X2013564Y31887D01*
X2012522Y30529D01*
X2011867Y28948D01*
X2011644Y27251D01*
Y22521D01*
X2016930D01*
Y33640D01*
D02*
G37*
G36*
X1933070D02*
Y22521D01*
X1938356D01*
Y27251D01*
X1938133Y28948D01*
X1937478Y30529D01*
X1936436Y31887D01*
X1935078Y32929D01*
X1933497Y33584D01*
X1933070Y33640D01*
D02*
G37*
G36*
X1930530Y33640D02*
X1930103Y33584D01*
X1928522Y32929D01*
X1927164Y31887D01*
X1926122Y30529D01*
X1925467Y28948D01*
X1925244Y27251D01*
Y22521D01*
X1930530D01*
Y33640D01*
D02*
G37*
G36*
X2043500Y21000D02*
X2039770D01*
Y16270D01*
X2043500D01*
Y21000D01*
D02*
G37*
G36*
X2037230D02*
X2033500D01*
Y16270D01*
X2037230D01*
Y21000D01*
D02*
G37*
G36*
X2056500D02*
X2046500D01*
Y9000D01*
X2056500D01*
Y11047D01*
X2057734Y11609D01*
X2059204Y11000D01*
X2060796D01*
X2062266Y11609D01*
X2063391Y12734D01*
X2064000Y14204D01*
Y15796D01*
X2063391Y17266D01*
X2062266Y18391D01*
X2060796Y19000D01*
X2059204D01*
X2057734Y18391D01*
X2056500Y18953D01*
Y21000D01*
D02*
G37*
G36*
X2043500Y13730D02*
X2039770D01*
Y9000D01*
X2043500D01*
Y13730D01*
D02*
G37*
G36*
X2037230D02*
X2033500D01*
Y9000D01*
X2037230D01*
Y13730D01*
D02*
G37*
G36*
X2016930Y19981D02*
X2011644D01*
Y15251D01*
X2011867Y13554D01*
X2012522Y11973D01*
X2013564Y10615D01*
X2014922Y9573D01*
X2016503Y8918D01*
X2016930Y8862D01*
Y19981D01*
D02*
G37*
G36*
X1938356Y19981D02*
X1933070D01*
Y8862D01*
X1933497Y8918D01*
X1935078Y9573D01*
X1936436Y10615D01*
X1937478Y11973D01*
X1938133Y13554D01*
X1938356Y15251D01*
Y19981D01*
D02*
G37*
G36*
X1930530D02*
X1925244D01*
Y15251D01*
X1925467Y13554D01*
X1926122Y11973D01*
X1927164Y10615D01*
X1928522Y9573D01*
X1930103Y8918D01*
X1930530Y8862D01*
Y19981D01*
D02*
G37*
G36*
X2024756Y19981D02*
X2019470D01*
Y8862D01*
X2019897Y8918D01*
X2021478Y9573D01*
X2022836Y10615D01*
X2023878Y11973D01*
X2024533Y13554D01*
X2024756Y15251D01*
Y19981D01*
D02*
G37*
%LPD*%
D11*
X1799683Y107000D02*
X1849272D01*
X1920000Y85000D02*
X1928500D01*
X2051500Y15000D02*
X2060000D01*
X2060000Y45000D02*
X2060000Y45000D01*
X2051500Y30000D02*
X2060000D01*
X2060000Y60000D02*
X2060000Y60000D01*
X2001500Y85000D02*
X2010000D01*
X2051500Y45000D02*
X2060000D01*
X2051500Y60000D02*
X2060000D01*
X1510000Y266500D02*
Y275000D01*
X1441000Y80500D02*
X1450500D01*
X1453500Y83500D01*
X1460000D01*
X1400000Y96500D02*
Y105000D01*
X1660000Y60000D02*
Y68500D01*
X1950000Y85000D02*
X1958500D01*
X1951500Y75000D02*
Y75000D01*
X2027500Y40000D02*
X2032500Y45000D01*
X1982500Y40000D02*
X2027500D01*
X1962500Y60000D02*
X1982500Y40000D01*
X1962500Y60000D02*
Y66251D01*
X1941500Y85000D02*
X1951500Y75000D01*
X2020000Y47500D02*
X2032500Y60000D01*
X2038500D01*
X2032500Y45000D02*
X2038500D01*
X1518500Y78500D02*
X1522500Y82500D01*
X1548500Y70000D02*
Y78500D01*
X1531500Y70000D02*
Y78500D01*
X1518500Y70000D02*
Y78500D01*
X1522500Y82500D02*
Y93000D01*
X1530000Y80000D02*
X1531500Y78500D01*
X1527500Y82500D02*
Y93000D01*
Y82500D02*
X1530000Y80000D01*
X1548500Y78500D02*
X1552500Y82500D01*
X1522500Y93000D02*
Y105000D01*
X1670000Y207500D02*
X1676500Y201000D01*
Y200000D02*
Y201000D01*
X1670000Y192500D02*
X1676500Y186000D01*
Y170000D02*
Y171000D01*
Y185000D02*
Y186000D01*
X1670000Y177500D02*
X1676500Y171000D01*
X1645000Y227500D02*
X1655000Y237500D01*
X1501500Y70000D02*
X1518500D01*
X1630000Y157500D02*
X1640000Y147500D01*
X1670000D01*
X1607000Y162500D02*
X1669000D01*
X1676500Y155000D01*
X1670000Y147500D02*
X1676500Y141000D01*
Y140000D02*
Y141000D01*
X1670000Y222500D02*
X1676500Y216000D01*
Y215000D02*
Y216000D01*
X1655000Y237500D02*
X1670000D01*
X1676500Y231000D01*
Y230000D02*
Y231000D01*
X1489500Y247000D02*
X1497000D01*
X1503500Y253500D01*
X1510000D01*
X1607000Y157500D02*
X1630000D01*
X1638650Y68350D02*
Y81650D01*
X1649250D01*
X1621350D02*
Y90000D01*
X1607000Y112500D02*
X1617500D01*
X1629000Y117500D02*
X1630000Y116500D01*
X1595000Y137500D02*
X1607000D01*
X1595000Y122500D02*
X1607000D01*
X1669000Y132500D02*
X1676500Y125000D01*
X1659850Y81650D02*
X1660000Y81500D01*
X1649250Y81650D02*
X1659850D01*
X1660000Y80000D02*
Y81500D01*
X1561500Y70000D02*
Y78500D01*
X1552500Y82500D02*
Y93000D01*
X1626500Y103500D02*
X1630000D01*
X1557500Y93000D02*
Y105000D01*
X1617500Y112500D02*
X1626500Y103500D01*
X1655000Y207500D02*
X1670000D01*
X1627500Y172500D02*
X1647500Y192500D01*
X1622500Y182500D02*
X1650000Y210000D01*
X1625000Y177500D02*
X1655000Y207500D01*
X1640000Y177500D02*
X1670000D01*
X1647500Y192500D02*
X1670000D01*
X1607000Y172500D02*
X1627500D01*
X1630000Y167500D02*
X1640000Y177500D01*
X1607000D02*
X1625000D01*
X1607000Y167500D02*
X1630000D01*
X1607000Y187500D02*
X1620000D01*
X1607000Y182500D02*
X1622500D01*
X1655000Y222500D02*
X1670000D01*
X1645000Y212500D02*
Y227500D01*
X1650000Y217500D02*
X1655000Y222500D01*
X1571500Y230000D02*
X1580000D01*
X1650000Y210000D02*
Y217500D01*
X1480000Y130000D02*
X1480000D01*
X1482500Y142500D02*
X1493000D01*
X1475000Y125000D02*
X1480000Y130000D01*
X1482500Y137500D02*
X1493000D01*
X1480000Y130000D02*
Y135000D01*
X1473500Y133500D02*
X1482500Y142500D01*
X1493000D02*
X1505000D01*
X1480000Y135000D02*
X1482500Y137500D01*
X1470000Y146500D02*
X1471000Y147500D01*
X1493000D01*
X1475000Y172500D02*
X1493000D01*
X1472500Y167500D02*
X1493000D01*
X1470000Y170000D02*
X1472500Y167500D01*
X1465000Y162500D02*
X1493000D01*
X1470000Y133500D02*
X1473500D01*
X1462500Y152500D02*
X1493000D01*
X1552500Y207000D02*
Y217500D01*
X1558500Y223500D02*
Y230000D01*
X1552500Y217500D02*
X1558500Y223500D01*
X1541500D02*
Y230000D01*
Y223500D02*
X1547500Y217500D01*
Y207000D02*
Y217500D01*
X1436500Y155000D02*
X1436500Y155000D01*
X1436500Y125000D02*
X1475000D01*
X1436500Y140000D02*
X1450000D01*
X1462500Y152500D01*
X1436500Y155000D02*
X1457500D01*
X1436500Y140000D02*
X1436500Y140000D01*
X1457500Y155000D02*
X1465000Y162500D01*
X1480000Y182500D02*
X1493000D01*
X1455000Y200000D02*
X1477500Y177500D01*
X1493000Y187500D02*
Y192000D01*
X1447500Y215000D02*
X1480000Y182500D01*
X1477500Y177500D02*
X1493000D01*
X1455000Y230000D02*
X1493000Y192000D01*
X1436500Y230000D02*
X1455000D01*
X1436500Y215000D02*
X1447500D01*
X1520000Y230000D02*
X1528500D01*
X1462500Y185000D02*
X1475000Y172500D01*
X1436500Y170000D02*
X1436500Y170000D01*
X1470000D01*
X1436500Y185000D02*
X1462500D01*
X1436500Y200000D02*
X1455000D01*
X1992500Y52500D02*
Y66251D01*
Y52500D02*
X1997500Y47500D01*
X2020000D01*
X1470500Y273000D02*
Y285000D01*
X1557500Y82500D02*
X1561500Y78500D01*
X1557500Y82500D02*
Y93000D01*
X1215000Y80000D02*
X1235000Y60000D01*
X1137500Y80000D02*
X1215000D01*
X1235000Y60000D02*
X1243500D01*
X1118750Y61250D02*
X1137500Y80000D01*
X1118750Y52540D02*
Y61250D01*
X1131250Y61250D02*
X1145000Y75000D01*
X1131250Y52540D02*
Y61250D01*
X1143750Y61250D02*
X1152500Y70000D01*
X1143750Y52540D02*
Y61250D01*
X1207500Y65000D02*
X1222500Y50000D01*
X1168750Y61250D02*
X1172500Y65000D01*
X1168750Y52540D02*
Y61250D01*
X1582500Y93000D02*
Y102500D01*
X1572500Y93000D02*
Y102500D01*
X1579000Y109000D01*
X1582500Y102500D02*
X1583379Y103379D01*
X1577500Y67500D02*
Y93000D01*
X1587500Y70000D02*
Y93000D01*
X1630000Y147500D02*
X1645000Y132500D01*
X1607000Y147500D02*
X1630000D01*
X1645000Y132500D02*
X1669000D01*
X1112500Y37500D02*
X1175000D01*
X1181250Y43750D02*
Y52540D01*
X1175000Y37500D02*
X1181250Y43750D01*
X1172500Y65000D02*
X1207500D01*
X1152500Y70000D02*
X1210000D01*
X1227500Y52500D01*
X1145000Y75000D02*
X1212500D01*
X1488500Y83500D02*
X1510000Y105000D01*
X1493000Y157500D02*
X1502500D01*
X1510000Y105000D02*
Y150000D01*
X1502500Y157500D02*
X1510000Y150000D01*
X1505000Y107500D02*
Y115000D01*
X1502500Y117500D02*
X1505000Y115000D01*
X1493000Y117500D02*
X1502500D01*
X1493000Y103000D02*
Y112500D01*
X868750Y52540D02*
Y61250D01*
X818750Y43750D02*
Y52540D01*
Y43750D02*
X825000Y37500D01*
X1105000Y45000D02*
X1112500Y37500D01*
X825000D02*
X887500D01*
X1212500Y75000D02*
X1232500Y55000D01*
X895000Y45000D02*
Y75000D01*
X887500Y37500D02*
X895000Y45000D01*
X1232500Y50000D02*
X1237500Y45000D01*
X1243500D01*
X1232500Y50000D02*
Y55000D01*
X1227500Y40000D02*
X1237500Y30000D01*
X1243500D01*
X1227500Y40000D02*
Y52500D01*
X1237500Y15000D02*
X1243500D01*
X1222500Y30000D02*
Y50000D01*
Y30000D02*
X1237500Y15000D01*
X1256500Y30000D02*
X1555000D01*
X1552500Y35000D02*
X1587500Y70000D01*
X1550000Y40000D02*
X1577500Y67500D01*
X1452500Y55000D02*
X1505000Y107500D01*
X1450000Y60000D02*
X1493000Y103000D01*
X1488500Y70000D02*
Y83500D01*
X1455000Y50000D02*
X1475000Y70000D01*
X1488500D01*
X1310000Y60000D02*
X1450000D01*
X1307500Y55000D02*
X1452500D01*
X1305000Y50000D02*
X1455000D01*
X1610000Y79700D02*
X1621350Y68350D01*
X1557500Y25000D02*
X1605000Y72500D01*
X1555000Y30000D02*
X1600000Y75000D01*
X1630000Y116500D02*
X1638500D01*
X1490000Y230000D02*
X1505000D01*
X1480000Y240000D02*
X1490000Y230000D01*
X1480000Y240000D02*
Y273000D01*
X1547500Y195000D02*
Y207000D01*
X1620000Y187500D02*
X1645000Y212500D01*
X1610000Y79700D02*
Y95000D01*
X1583379Y103379D02*
X1591621D01*
X1600000Y95000D01*
Y75000D02*
Y95000D01*
X1579000Y109000D02*
X1591000D01*
X1605000Y95000D01*
Y72500D02*
Y95000D01*
X1505000Y230000D02*
X1517500Y217500D01*
Y207000D02*
Y217500D01*
X856250Y52540D02*
Y61250D01*
X1261371Y58629D02*
X1280000Y40000D01*
X1256500Y60000D02*
X1257871Y58629D01*
X1280000Y40000D02*
X1550000D01*
X1257871Y58629D02*
X1261371D01*
X1256500Y45000D02*
X1267500D01*
X1277500Y35000D01*
X1552500D01*
X1262500Y15000D02*
X1272500Y25000D01*
X1557500D01*
X1256500Y15000D02*
X1262500D01*
X1510000Y253500D02*
X1571500D01*
X1600000Y225000D01*
Y200000D02*
Y225000D01*
X1592500Y142500D02*
X1607000D01*
X1590000Y140000D02*
X1592500Y142500D01*
X1590000Y115000D02*
Y140000D01*
Y115000D02*
X1610000Y95000D01*
X1607000Y117500D02*
X1620000D01*
X1629000D01*
X1582500D02*
Y182500D01*
X1600000Y200000D01*
X1638500Y116500D02*
X1680000Y75000D01*
Y30000D02*
Y75000D01*
X1105000Y45000D02*
Y110000D01*
X843750Y52540D02*
X845000Y53790D01*
X831250Y52540D02*
Y110000D01*
X843750Y52540D02*
Y78750D01*
X875000Y110000D01*
X1240000Y130000D02*
X1310000Y60000D01*
X856250Y61250D02*
X925000Y130000D01*
X940000Y120000D02*
X1235000D01*
X895000Y75000D02*
X940000Y120000D01*
X1235000D02*
X1305000Y50000D01*
X932500Y125000D02*
X1237500D01*
X1307500Y55000D01*
X868750Y61250D02*
X932500Y125000D01*
X925000Y130000D02*
X1240000D01*
X1635243Y131500D02*
X1656743Y110000D01*
X1965121Y109121D02*
X1965121D01*
X1964243Y110000D02*
X1965121Y109121D01*
X1965121D02*
X1981500Y92743D01*
X1616250Y131500D02*
X1635243D01*
X1981500Y85251D02*
Y92743D01*
X1615250Y132500D02*
X1616250Y131500D01*
X1607000Y132500D02*
X1615250D01*
X1981500Y85251D02*
X1988249D01*
X1988500Y85000D01*
X1981500Y73001D02*
Y85251D01*
Y73001D02*
X1982500Y72001D01*
Y60000D02*
Y66251D01*
X1980000Y57500D02*
X1982500Y60000D01*
Y66251D02*
Y72001D01*
X1975000Y57500D02*
X1980000D01*
X1972500Y60000D02*
Y66251D01*
Y60000D02*
X1975000Y57500D01*
X1616250Y128500D02*
X1634000D01*
X1978500Y85251D02*
Y91500D01*
Y73001D02*
Y85251D01*
X1970000Y75000D02*
X1977500D01*
Y72001D02*
X1978500Y73001D01*
X1977500Y66251D02*
Y72001D01*
X1615250Y127500D02*
X1616250Y128500D01*
X1607000Y127500D02*
X1615250D01*
X1967500Y72500D02*
X1970000Y75000D01*
X1967500Y66251D02*
Y72500D01*
X1971500Y85000D02*
X1978249D01*
X1978500Y85251D01*
X1656743Y110000D02*
X1825000D01*
X1874804D02*
X1964243D01*
X1825000D02*
X1874804D01*
X1634000Y128500D02*
X1655500Y107000D01*
X1963000D02*
X1978500Y91500D01*
X1849272Y107000D02*
X1963000D01*
X1655500D02*
X1799683D01*
X1595000Y152500D02*
X1607000D01*
D12*
X450000Y393500D02*
D03*
Y406500D02*
D03*
X370000Y438500D02*
D03*
Y451500D02*
D03*
X1630000Y116500D02*
D03*
Y103500D02*
D03*
X1460000Y83500D02*
D03*
Y96500D02*
D03*
X1400000D02*
D03*
Y83500D02*
D03*
X1470000Y146500D02*
D03*
Y133500D02*
D03*
X1660000Y68500D02*
D03*
Y81500D02*
D03*
X1510000Y253500D02*
D03*
Y266500D02*
D03*
X820000Y438500D02*
D03*
Y451500D02*
D03*
X1270000Y438500D02*
D03*
Y451500D02*
D03*
X1720000Y438500D02*
D03*
Y451500D02*
D03*
X2170000Y438500D02*
D03*
Y451500D02*
D03*
X2620000Y438500D02*
D03*
Y451500D02*
D03*
X3070000Y438500D02*
D03*
Y451500D02*
D03*
X3520000Y438500D02*
D03*
Y451500D02*
D03*
X370000Y888500D02*
D03*
Y901500D02*
D03*
X820000Y888500D02*
D03*
Y901500D02*
D03*
X1270000Y888500D02*
D03*
Y901500D02*
D03*
X1720000Y888500D02*
D03*
Y901500D02*
D03*
X2170000Y888500D02*
D03*
Y901500D02*
D03*
X2620000Y888500D02*
D03*
Y901500D02*
D03*
X3070000Y888500D02*
D03*
Y901500D02*
D03*
X3520000Y888500D02*
D03*
Y901500D02*
D03*
X370000Y1338500D02*
D03*
Y1351500D02*
D03*
X820000Y1338500D02*
D03*
Y1351500D02*
D03*
X1270000Y1338500D02*
D03*
Y1351500D02*
D03*
X1720000Y1338500D02*
D03*
Y1351500D02*
D03*
X2170000Y1338500D02*
D03*
Y1351500D02*
D03*
X2620000Y1338500D02*
D03*
Y1351500D02*
D03*
X3070000Y1338500D02*
D03*
Y1351500D02*
D03*
X3520000Y1338500D02*
D03*
Y1351500D02*
D03*
X370000Y1788500D02*
D03*
Y1801500D02*
D03*
X820000Y1788500D02*
D03*
Y1801500D02*
D03*
X1270000Y1788500D02*
D03*
Y1801500D02*
D03*
X1720000Y1788500D02*
D03*
Y1801500D02*
D03*
X2170000Y1788500D02*
D03*
Y1801500D02*
D03*
X2620000Y1788500D02*
D03*
Y1801500D02*
D03*
X3070000Y1788500D02*
D03*
Y1801500D02*
D03*
X3520000Y1788500D02*
D03*
Y1801500D02*
D03*
X370000Y2238500D02*
D03*
Y2251500D02*
D03*
X820000Y2238500D02*
D03*
Y2251500D02*
D03*
X1270000Y2238500D02*
D03*
Y2251500D02*
D03*
X1720000Y2238500D02*
D03*
Y2251500D02*
D03*
X2170000Y2238500D02*
D03*
Y2251500D02*
D03*
X2620000Y2238500D02*
D03*
Y2251500D02*
D03*
X3070000Y2238500D02*
D03*
Y2251500D02*
D03*
X3520000Y2238500D02*
D03*
Y2251500D02*
D03*
X370000Y2688500D02*
D03*
Y2701500D02*
D03*
X820000Y2688500D02*
D03*
Y2701500D02*
D03*
X1270000Y2688500D02*
D03*
Y2701500D02*
D03*
X1720000Y2688500D02*
D03*
Y2701500D02*
D03*
X2170000Y2688500D02*
D03*
Y2701500D02*
D03*
X2620000Y2688500D02*
D03*
Y2701500D02*
D03*
X3070000Y2688500D02*
D03*
Y2701500D02*
D03*
X370000Y3138500D02*
D03*
Y3151500D02*
D03*
X820000Y3138500D02*
D03*
Y3151500D02*
D03*
X1270000Y3138500D02*
D03*
Y3151500D02*
D03*
X1720000Y3138500D02*
D03*
Y3151500D02*
D03*
X2170000Y3138500D02*
D03*
Y3151500D02*
D03*
X2620000Y3138500D02*
D03*
Y3151500D02*
D03*
X3070000Y3138500D02*
D03*
Y3151500D02*
D03*
X3520000Y3138500D02*
D03*
Y3151500D02*
D03*
X370000Y3588500D02*
D03*
Y3601500D02*
D03*
X820000Y3588500D02*
D03*
Y3601500D02*
D03*
X1270000Y3588500D02*
D03*
Y3601500D02*
D03*
X1720000Y3588500D02*
D03*
Y3601500D02*
D03*
X2170000Y3588500D02*
D03*
Y3601500D02*
D03*
X2620000Y3588500D02*
D03*
Y3601500D02*
D03*
X3070000Y3588500D02*
D03*
Y3601500D02*
D03*
X3520000Y3588500D02*
D03*
Y3601500D02*
D03*
X900000Y393500D02*
D03*
Y406500D02*
D03*
X1350000Y393500D02*
D03*
Y406500D02*
D03*
X1800000Y393500D02*
D03*
Y406500D02*
D03*
X2250000Y393500D02*
D03*
Y406500D02*
D03*
X2700000Y393500D02*
D03*
Y406500D02*
D03*
X3150000Y393500D02*
D03*
Y406500D02*
D03*
X3600000Y393500D02*
D03*
Y406500D02*
D03*
X450000Y843500D02*
D03*
Y856500D02*
D03*
X900000Y843500D02*
D03*
Y856500D02*
D03*
X1350000Y843500D02*
D03*
Y856500D02*
D03*
X1800000Y843500D02*
D03*
Y856500D02*
D03*
X2250000Y843500D02*
D03*
Y856500D02*
D03*
X2700000Y843500D02*
D03*
Y856500D02*
D03*
X3150000Y843500D02*
D03*
Y856500D02*
D03*
X3600000Y843500D02*
D03*
Y856500D02*
D03*
X450000Y1293500D02*
D03*
Y1306500D02*
D03*
X900000Y1293500D02*
D03*
Y1306500D02*
D03*
X1350000Y1293500D02*
D03*
Y1306500D02*
D03*
X1800000Y1293500D02*
D03*
Y1306500D02*
D03*
X2250000Y1293500D02*
D03*
Y1306500D02*
D03*
X2700000Y1293500D02*
D03*
Y1306500D02*
D03*
X3150000Y1293500D02*
D03*
Y1306500D02*
D03*
X3600000Y1293500D02*
D03*
Y1306500D02*
D03*
X450000Y1743500D02*
D03*
Y1756500D02*
D03*
X900000Y1743500D02*
D03*
Y1756500D02*
D03*
X1350000Y1743500D02*
D03*
Y1756500D02*
D03*
X1800000Y1743500D02*
D03*
Y1756500D02*
D03*
X2250000Y1743500D02*
D03*
Y1756500D02*
D03*
X2700000Y1743500D02*
D03*
Y1756500D02*
D03*
X3150000Y1743500D02*
D03*
Y1756500D02*
D03*
X3600000Y1743500D02*
D03*
Y1756500D02*
D03*
X450000Y2193500D02*
D03*
Y2206500D02*
D03*
X900000Y2193500D02*
D03*
Y2206500D02*
D03*
X1350000Y2193500D02*
D03*
Y2206500D02*
D03*
X1800000Y2193500D02*
D03*
Y2206500D02*
D03*
X2250000Y2193500D02*
D03*
Y2206500D02*
D03*
X2700000Y2193500D02*
D03*
Y2206500D02*
D03*
X3150000Y2193500D02*
D03*
Y2206500D02*
D03*
X3600000Y2193500D02*
D03*
Y2206500D02*
D03*
X450000Y2643500D02*
D03*
Y2656500D02*
D03*
X900000Y2643500D02*
D03*
Y2656500D02*
D03*
X1350000Y2643500D02*
D03*
Y2656500D02*
D03*
X1800000Y2643500D02*
D03*
Y2656500D02*
D03*
X2250000Y2643500D02*
D03*
Y2656500D02*
D03*
X2700000Y2643500D02*
D03*
Y2656500D02*
D03*
X3150000Y2643500D02*
D03*
Y2656500D02*
D03*
X450000Y3093500D02*
D03*
Y3106500D02*
D03*
X900000Y3093500D02*
D03*
Y3106500D02*
D03*
X1350000Y3093500D02*
D03*
Y3106500D02*
D03*
X1800000Y3093500D02*
D03*
Y3106500D02*
D03*
X2250000Y3093500D02*
D03*
Y3106500D02*
D03*
X2700000Y3093500D02*
D03*
Y3106500D02*
D03*
X3150000Y3093500D02*
D03*
Y3106500D02*
D03*
X3600000Y3093500D02*
D03*
Y3106500D02*
D03*
X450000Y3543500D02*
D03*
Y3556500D02*
D03*
X900000Y3543500D02*
D03*
Y3556500D02*
D03*
X1350000Y3543500D02*
D03*
Y3556500D02*
D03*
X1800000Y3543500D02*
D03*
Y3556500D02*
D03*
X2250000Y3543500D02*
D03*
Y3556500D02*
D03*
X2700000Y3543500D02*
D03*
Y3556500D02*
D03*
X3150000Y3543500D02*
D03*
Y3556500D02*
D03*
X3600000Y3543500D02*
D03*
Y3556500D02*
D03*
X3520000Y2688500D02*
D03*
Y2701500D02*
D03*
X3600000Y2643500D02*
D03*
Y2656500D02*
D03*
D13*
X387000Y440000D02*
D03*
Y449500D02*
D03*
X413000Y430500D02*
D03*
Y440000D02*
D03*
Y449500D02*
D03*
X387000Y430500D02*
D03*
X1419000Y90000D02*
D03*
X1441000Y80500D02*
D03*
Y99500D02*
D03*
X837000Y440000D02*
D03*
Y449500D02*
D03*
X863000Y430500D02*
D03*
Y440000D02*
D03*
Y449500D02*
D03*
X837000Y430500D02*
D03*
X1287000Y440000D02*
D03*
Y449500D02*
D03*
X1313000Y430500D02*
D03*
Y440000D02*
D03*
Y449500D02*
D03*
X1287000Y430500D02*
D03*
X1737000Y440000D02*
D03*
Y449500D02*
D03*
X1763000Y430500D02*
D03*
Y440000D02*
D03*
Y449500D02*
D03*
X1737000Y430500D02*
D03*
X2187000Y440000D02*
D03*
Y449500D02*
D03*
X2213000Y430500D02*
D03*
Y440000D02*
D03*
Y449500D02*
D03*
X2187000Y430500D02*
D03*
X2637000Y440000D02*
D03*
Y449500D02*
D03*
X2663000Y430500D02*
D03*
Y440000D02*
D03*
Y449500D02*
D03*
X2637000Y430500D02*
D03*
X3087000Y440000D02*
D03*
Y449500D02*
D03*
X3113000Y430500D02*
D03*
Y440000D02*
D03*
Y449500D02*
D03*
X3087000Y430500D02*
D03*
X3537000Y440000D02*
D03*
Y449500D02*
D03*
X3563000Y430500D02*
D03*
Y440000D02*
D03*
Y449500D02*
D03*
X3537000Y430500D02*
D03*
X387000Y890000D02*
D03*
Y899500D02*
D03*
X413000Y880500D02*
D03*
Y890000D02*
D03*
Y899500D02*
D03*
X387000Y880500D02*
D03*
X837000Y890000D02*
D03*
Y899500D02*
D03*
X863000Y880500D02*
D03*
Y890000D02*
D03*
Y899500D02*
D03*
X837000Y880500D02*
D03*
X1287000Y890000D02*
D03*
Y899500D02*
D03*
X1313000Y880500D02*
D03*
Y890000D02*
D03*
Y899500D02*
D03*
X1287000Y880500D02*
D03*
X1737000Y890000D02*
D03*
Y899500D02*
D03*
X1763000Y880500D02*
D03*
Y890000D02*
D03*
Y899500D02*
D03*
X1737000Y880500D02*
D03*
X2187000Y890000D02*
D03*
Y899500D02*
D03*
X2213000Y880500D02*
D03*
Y890000D02*
D03*
Y899500D02*
D03*
X2187000Y880500D02*
D03*
X2637000Y890000D02*
D03*
Y899500D02*
D03*
X2663000Y880500D02*
D03*
Y890000D02*
D03*
Y899500D02*
D03*
X2637000Y880500D02*
D03*
X3087000Y890000D02*
D03*
Y899500D02*
D03*
X3113000Y880500D02*
D03*
Y890000D02*
D03*
Y899500D02*
D03*
X3087000Y880500D02*
D03*
X3537000Y890000D02*
D03*
Y899500D02*
D03*
X3563000Y880500D02*
D03*
Y890000D02*
D03*
Y899500D02*
D03*
X3537000Y880500D02*
D03*
X387000Y1340000D02*
D03*
Y1349500D02*
D03*
X413000Y1330500D02*
D03*
Y1340000D02*
D03*
Y1349500D02*
D03*
X387000Y1330500D02*
D03*
X837000Y1340000D02*
D03*
Y1349500D02*
D03*
X863000Y1330500D02*
D03*
Y1340000D02*
D03*
Y1349500D02*
D03*
X837000Y1330500D02*
D03*
X1287000Y1340000D02*
D03*
Y1349500D02*
D03*
X1313000Y1330500D02*
D03*
Y1340000D02*
D03*
Y1349500D02*
D03*
X1287000Y1330500D02*
D03*
X1737000Y1340000D02*
D03*
Y1349500D02*
D03*
X1763000Y1330500D02*
D03*
Y1340000D02*
D03*
Y1349500D02*
D03*
X1737000Y1330500D02*
D03*
X2187000Y1340000D02*
D03*
Y1349500D02*
D03*
X2213000Y1330500D02*
D03*
Y1340000D02*
D03*
Y1349500D02*
D03*
X2187000Y1330500D02*
D03*
X2637000Y1340000D02*
D03*
Y1349500D02*
D03*
X2663000Y1330500D02*
D03*
Y1340000D02*
D03*
Y1349500D02*
D03*
X2637000Y1330500D02*
D03*
X3087000Y1340000D02*
D03*
Y1349500D02*
D03*
X3113000Y1330500D02*
D03*
Y1340000D02*
D03*
Y1349500D02*
D03*
X3087000Y1330500D02*
D03*
X3537000Y1340000D02*
D03*
Y1349500D02*
D03*
X3563000Y1330500D02*
D03*
Y1340000D02*
D03*
Y1349500D02*
D03*
X3537000Y1330500D02*
D03*
X387000Y1790000D02*
D03*
Y1799500D02*
D03*
X413000Y1780500D02*
D03*
Y1790000D02*
D03*
Y1799500D02*
D03*
X387000Y1780500D02*
D03*
X837000Y1790000D02*
D03*
Y1799500D02*
D03*
X863000Y1780500D02*
D03*
Y1790000D02*
D03*
Y1799500D02*
D03*
X837000Y1780500D02*
D03*
X1287000Y1790000D02*
D03*
Y1799500D02*
D03*
X1313000Y1780500D02*
D03*
Y1790000D02*
D03*
Y1799500D02*
D03*
X1287000Y1780500D02*
D03*
X1737000Y1790000D02*
D03*
Y1799500D02*
D03*
X1763000Y1780500D02*
D03*
Y1790000D02*
D03*
Y1799500D02*
D03*
X1737000Y1780500D02*
D03*
X2187000Y1790000D02*
D03*
Y1799500D02*
D03*
X2213000Y1780500D02*
D03*
Y1790000D02*
D03*
Y1799500D02*
D03*
X2187000Y1780500D02*
D03*
X2637000Y1790000D02*
D03*
Y1799500D02*
D03*
X2663000Y1780500D02*
D03*
Y1790000D02*
D03*
Y1799500D02*
D03*
X2637000Y1780500D02*
D03*
X3087000Y1790000D02*
D03*
Y1799500D02*
D03*
X3113000Y1780500D02*
D03*
Y1790000D02*
D03*
Y1799500D02*
D03*
X3087000Y1780500D02*
D03*
X3537000Y1790000D02*
D03*
Y1799500D02*
D03*
X3563000Y1780500D02*
D03*
Y1790000D02*
D03*
Y1799500D02*
D03*
X3537000Y1780500D02*
D03*
X387000Y2240000D02*
D03*
Y2249500D02*
D03*
X413000Y2230500D02*
D03*
Y2240000D02*
D03*
Y2249500D02*
D03*
X387000Y2230500D02*
D03*
X837000Y2240000D02*
D03*
Y2249500D02*
D03*
X863000Y2230500D02*
D03*
Y2240000D02*
D03*
Y2249500D02*
D03*
X837000Y2230500D02*
D03*
X1287000Y2240000D02*
D03*
Y2249500D02*
D03*
X1313000Y2230500D02*
D03*
Y2240000D02*
D03*
Y2249500D02*
D03*
X1287000Y2230500D02*
D03*
X1737000Y2240000D02*
D03*
Y2249500D02*
D03*
X1763000Y2230500D02*
D03*
Y2240000D02*
D03*
Y2249500D02*
D03*
X1737000Y2230500D02*
D03*
X2187000Y2240000D02*
D03*
Y2249500D02*
D03*
X2213000Y2230500D02*
D03*
Y2240000D02*
D03*
Y2249500D02*
D03*
X2187000Y2230500D02*
D03*
X2637000Y2240000D02*
D03*
Y2249500D02*
D03*
X2663000Y2230500D02*
D03*
Y2240000D02*
D03*
Y2249500D02*
D03*
X2637000Y2230500D02*
D03*
X3087000Y2240000D02*
D03*
Y2249500D02*
D03*
X3113000Y2230500D02*
D03*
Y2240000D02*
D03*
Y2249500D02*
D03*
X3087000Y2230500D02*
D03*
X3537000Y2240000D02*
D03*
Y2249500D02*
D03*
X3563000Y2230500D02*
D03*
Y2240000D02*
D03*
Y2249500D02*
D03*
X3537000Y2230500D02*
D03*
X387000Y2690000D02*
D03*
Y2699500D02*
D03*
X413000Y2680500D02*
D03*
Y2690000D02*
D03*
Y2699500D02*
D03*
X387000Y2680500D02*
D03*
X837000Y2690000D02*
D03*
Y2699500D02*
D03*
X863000Y2680500D02*
D03*
Y2690000D02*
D03*
Y2699500D02*
D03*
X837000Y2680500D02*
D03*
X1287000Y2690000D02*
D03*
Y2699500D02*
D03*
X1313000Y2680500D02*
D03*
Y2690000D02*
D03*
Y2699500D02*
D03*
X1287000Y2680500D02*
D03*
X1737000Y2690000D02*
D03*
Y2699500D02*
D03*
X1763000Y2680500D02*
D03*
Y2690000D02*
D03*
Y2699500D02*
D03*
X1737000Y2680500D02*
D03*
X2187000Y2690000D02*
D03*
Y2699500D02*
D03*
X2213000Y2680500D02*
D03*
Y2690000D02*
D03*
Y2699500D02*
D03*
X2187000Y2680500D02*
D03*
X2637000Y2690000D02*
D03*
Y2699500D02*
D03*
X2663000Y2680500D02*
D03*
Y2690000D02*
D03*
Y2699500D02*
D03*
X2637000Y2680500D02*
D03*
X3087000Y2690000D02*
D03*
Y2699500D02*
D03*
X3113000Y2680500D02*
D03*
Y2690000D02*
D03*
Y2699500D02*
D03*
X3087000Y2680500D02*
D03*
X387000Y3140000D02*
D03*
Y3149500D02*
D03*
X413000Y3130500D02*
D03*
Y3140000D02*
D03*
Y3149500D02*
D03*
X387000Y3130500D02*
D03*
X837000Y3140000D02*
D03*
Y3149500D02*
D03*
X863000Y3130500D02*
D03*
Y3140000D02*
D03*
Y3149500D02*
D03*
X837000Y3130500D02*
D03*
X1287000Y3140000D02*
D03*
Y3149500D02*
D03*
X1313000Y3130500D02*
D03*
Y3140000D02*
D03*
Y3149500D02*
D03*
X1287000Y3130500D02*
D03*
X1737000Y3140000D02*
D03*
Y3149500D02*
D03*
X1763000Y3130500D02*
D03*
Y3140000D02*
D03*
Y3149500D02*
D03*
X1737000Y3130500D02*
D03*
X2187000Y3140000D02*
D03*
Y3149500D02*
D03*
X2213000Y3130500D02*
D03*
Y3140000D02*
D03*
Y3149500D02*
D03*
X2187000Y3130500D02*
D03*
X2637000Y3140000D02*
D03*
Y3149500D02*
D03*
X2663000Y3130500D02*
D03*
Y3140000D02*
D03*
Y3149500D02*
D03*
X2637000Y3130500D02*
D03*
X3087000Y3140000D02*
D03*
Y3149500D02*
D03*
X3113000Y3130500D02*
D03*
Y3140000D02*
D03*
Y3149500D02*
D03*
X3087000Y3130500D02*
D03*
X3537000Y3140000D02*
D03*
Y3149500D02*
D03*
X3563000Y3130500D02*
D03*
Y3140000D02*
D03*
Y3149500D02*
D03*
X3537000Y3130500D02*
D03*
X387000Y3590000D02*
D03*
Y3599500D02*
D03*
X413000Y3580500D02*
D03*
Y3590000D02*
D03*
Y3599500D02*
D03*
X387000Y3580500D02*
D03*
X837000Y3590000D02*
D03*
Y3599500D02*
D03*
X863000Y3580500D02*
D03*
Y3590000D02*
D03*
Y3599500D02*
D03*
X837000Y3580500D02*
D03*
X1287000Y3590000D02*
D03*
Y3599500D02*
D03*
X1313000Y3580500D02*
D03*
Y3590000D02*
D03*
Y3599500D02*
D03*
X1287000Y3580500D02*
D03*
X1737000Y3590000D02*
D03*
Y3599500D02*
D03*
X1763000Y3580500D02*
D03*
Y3590000D02*
D03*
Y3599500D02*
D03*
X1737000Y3580500D02*
D03*
X2187000Y3590000D02*
D03*
Y3599500D02*
D03*
X2213000Y3580500D02*
D03*
Y3590000D02*
D03*
Y3599500D02*
D03*
X2187000Y3580500D02*
D03*
X2637000Y3590000D02*
D03*
Y3599500D02*
D03*
X2663000Y3580500D02*
D03*
Y3590000D02*
D03*
Y3599500D02*
D03*
X2637000Y3580500D02*
D03*
X3087000Y3590000D02*
D03*
Y3599500D02*
D03*
X3113000Y3580500D02*
D03*
Y3590000D02*
D03*
Y3599500D02*
D03*
X3087000Y3580500D02*
D03*
X3537000Y3590000D02*
D03*
Y3599500D02*
D03*
X3563000Y3580500D02*
D03*
Y3590000D02*
D03*
Y3599500D02*
D03*
X3537000Y3580500D02*
D03*
Y2690000D02*
D03*
Y2699500D02*
D03*
X3563000Y2680500D02*
D03*
Y2690000D02*
D03*
Y2699500D02*
D03*
X3537000Y2680500D02*
D03*
D14*
X373000Y407500D02*
D03*
Y392500D02*
D03*
X427000D02*
D03*
Y407500D02*
D03*
X823000D02*
D03*
Y392500D02*
D03*
X877000D02*
D03*
Y407500D02*
D03*
X1273000D02*
D03*
Y392500D02*
D03*
X1327000D02*
D03*
Y407500D02*
D03*
X1723000D02*
D03*
Y392500D02*
D03*
X1777000D02*
D03*
Y407500D02*
D03*
X2173000D02*
D03*
Y392500D02*
D03*
X2227000D02*
D03*
Y407500D02*
D03*
X2623000D02*
D03*
Y392500D02*
D03*
X2677000D02*
D03*
Y407500D02*
D03*
X3073000D02*
D03*
Y392500D02*
D03*
X3127000D02*
D03*
Y407500D02*
D03*
X3523000D02*
D03*
Y392500D02*
D03*
X3577000D02*
D03*
Y407500D02*
D03*
X373000Y857500D02*
D03*
Y842500D02*
D03*
X427000D02*
D03*
Y857500D02*
D03*
X823000D02*
D03*
Y842500D02*
D03*
X877000D02*
D03*
Y857500D02*
D03*
X1273000D02*
D03*
Y842500D02*
D03*
X1327000D02*
D03*
Y857500D02*
D03*
X1723000D02*
D03*
Y842500D02*
D03*
X1777000D02*
D03*
Y857500D02*
D03*
X2173000D02*
D03*
Y842500D02*
D03*
X2227000D02*
D03*
Y857500D02*
D03*
X2623000D02*
D03*
Y842500D02*
D03*
X2677000D02*
D03*
Y857500D02*
D03*
X3073000D02*
D03*
Y842500D02*
D03*
X3127000D02*
D03*
Y857500D02*
D03*
X3523000D02*
D03*
Y842500D02*
D03*
X3577000D02*
D03*
Y857500D02*
D03*
X373000Y1307500D02*
D03*
Y1292500D02*
D03*
X427000D02*
D03*
Y1307500D02*
D03*
X823000D02*
D03*
Y1292500D02*
D03*
X877000D02*
D03*
Y1307500D02*
D03*
X1273000D02*
D03*
Y1292500D02*
D03*
X1327000D02*
D03*
Y1307500D02*
D03*
X1723000D02*
D03*
Y1292500D02*
D03*
X1777000D02*
D03*
Y1307500D02*
D03*
X2173000D02*
D03*
Y1292500D02*
D03*
X2227000D02*
D03*
Y1307500D02*
D03*
X2623000D02*
D03*
Y1292500D02*
D03*
X2677000D02*
D03*
Y1307500D02*
D03*
X3073000D02*
D03*
Y1292500D02*
D03*
X3127000D02*
D03*
Y1307500D02*
D03*
X3523000D02*
D03*
Y1292500D02*
D03*
X3577000D02*
D03*
Y1307500D02*
D03*
X373000Y1757500D02*
D03*
Y1742500D02*
D03*
X427000D02*
D03*
Y1757500D02*
D03*
X823000D02*
D03*
Y1742500D02*
D03*
X877000D02*
D03*
Y1757500D02*
D03*
X1273000D02*
D03*
Y1742500D02*
D03*
X1327000D02*
D03*
Y1757500D02*
D03*
X1723000D02*
D03*
Y1742500D02*
D03*
X1777000D02*
D03*
Y1757500D02*
D03*
X2173000D02*
D03*
Y1742500D02*
D03*
X2227000D02*
D03*
Y1757500D02*
D03*
X2623000D02*
D03*
Y1742500D02*
D03*
X2677000D02*
D03*
Y1757500D02*
D03*
X3073000D02*
D03*
Y1742500D02*
D03*
X3127000D02*
D03*
Y1757500D02*
D03*
X3523000D02*
D03*
Y1742500D02*
D03*
X3577000D02*
D03*
Y1757500D02*
D03*
X373000Y2207500D02*
D03*
Y2192500D02*
D03*
X427000D02*
D03*
Y2207500D02*
D03*
X823000D02*
D03*
Y2192500D02*
D03*
X877000D02*
D03*
Y2207500D02*
D03*
X1273000D02*
D03*
Y2192500D02*
D03*
X1327000D02*
D03*
Y2207500D02*
D03*
X1723000D02*
D03*
Y2192500D02*
D03*
X1777000D02*
D03*
Y2207500D02*
D03*
X2173000D02*
D03*
Y2192500D02*
D03*
X2227000D02*
D03*
Y2207500D02*
D03*
X2623000D02*
D03*
Y2192500D02*
D03*
X2677000D02*
D03*
Y2207500D02*
D03*
X3073000D02*
D03*
Y2192500D02*
D03*
X3127000D02*
D03*
Y2207500D02*
D03*
X3523000D02*
D03*
Y2192500D02*
D03*
X3577000D02*
D03*
Y2207500D02*
D03*
X373000Y2657500D02*
D03*
Y2642500D02*
D03*
X427000D02*
D03*
Y2657500D02*
D03*
X823000D02*
D03*
Y2642500D02*
D03*
X877000D02*
D03*
Y2657500D02*
D03*
X1273000D02*
D03*
Y2642500D02*
D03*
X1327000D02*
D03*
Y2657500D02*
D03*
X1723000D02*
D03*
Y2642500D02*
D03*
X1777000D02*
D03*
Y2657500D02*
D03*
X2173000D02*
D03*
Y2642500D02*
D03*
X2227000D02*
D03*
Y2657500D02*
D03*
X2623000D02*
D03*
Y2642500D02*
D03*
X2677000D02*
D03*
Y2657500D02*
D03*
X3073000D02*
D03*
Y2642500D02*
D03*
X3127000D02*
D03*
Y2657500D02*
D03*
X373000Y3107500D02*
D03*
Y3092500D02*
D03*
X427000D02*
D03*
Y3107500D02*
D03*
X823000D02*
D03*
Y3092500D02*
D03*
X877000D02*
D03*
Y3107500D02*
D03*
X1273000D02*
D03*
Y3092500D02*
D03*
X1327000D02*
D03*
Y3107500D02*
D03*
X1723000D02*
D03*
Y3092500D02*
D03*
X1777000D02*
D03*
Y3107500D02*
D03*
X2173000D02*
D03*
Y3092500D02*
D03*
X2227000D02*
D03*
Y3107500D02*
D03*
X2623000D02*
D03*
Y3092500D02*
D03*
X2677000D02*
D03*
Y3107500D02*
D03*
X3073000D02*
D03*
Y3092500D02*
D03*
X3127000D02*
D03*
Y3107500D02*
D03*
X3523000D02*
D03*
Y3092500D02*
D03*
X3577000D02*
D03*
Y3107500D02*
D03*
X373000Y3557500D02*
D03*
Y3542500D02*
D03*
X427000D02*
D03*
Y3557500D02*
D03*
X823000D02*
D03*
Y3542500D02*
D03*
X877000D02*
D03*
Y3557500D02*
D03*
X1273000D02*
D03*
Y3542500D02*
D03*
X1327000D02*
D03*
Y3557500D02*
D03*
X1723000D02*
D03*
Y3542500D02*
D03*
X1777000D02*
D03*
Y3557500D02*
D03*
X2173000D02*
D03*
Y3542500D02*
D03*
X2227000D02*
D03*
Y3557500D02*
D03*
X2623000D02*
D03*
Y3542500D02*
D03*
X2677000D02*
D03*
Y3557500D02*
D03*
X3073000D02*
D03*
Y3542500D02*
D03*
X3127000D02*
D03*
Y3557500D02*
D03*
X3523000D02*
D03*
Y3542500D02*
D03*
X3577000D02*
D03*
Y3557500D02*
D03*
X3523000Y2657500D02*
D03*
Y2642500D02*
D03*
X3577000D02*
D03*
Y2657500D02*
D03*
D15*
X1958500Y85000D02*
D03*
X1971500D02*
D03*
X2001500D02*
D03*
X1988500D02*
D03*
X1928500D02*
D03*
X1941500D02*
D03*
X2038500Y45000D02*
D03*
X2051500D02*
D03*
Y30000D02*
D03*
X2038500D02*
D03*
X2051500Y15000D02*
D03*
X2038500D02*
D03*
Y60000D02*
D03*
X2051500D02*
D03*
X1531500Y70000D02*
D03*
X1518500D02*
D03*
X1561500D02*
D03*
X1548500D02*
D03*
X1501500D02*
D03*
X1488500D02*
D03*
X1663500Y215000D02*
D03*
X1676500D02*
D03*
X1663500Y200000D02*
D03*
X1676500D02*
D03*
X1663500Y185000D02*
D03*
X1676500D02*
D03*
X1663500Y170000D02*
D03*
X1676500D02*
D03*
X1663500Y155000D02*
D03*
X1676500D02*
D03*
X1663500Y140000D02*
D03*
X1676500D02*
D03*
X1663500Y125000D02*
D03*
X1676500D02*
D03*
X1436500Y215000D02*
D03*
X1423500D02*
D03*
X1436500Y200000D02*
D03*
X1423500D02*
D03*
X1436500Y185000D02*
D03*
X1423500D02*
D03*
X1436500Y170000D02*
D03*
X1423500D02*
D03*
X1436500Y155000D02*
D03*
X1423500D02*
D03*
X1436500Y140000D02*
D03*
X1423500D02*
D03*
X1436500Y125000D02*
D03*
X1423500D02*
D03*
X1558500Y230000D02*
D03*
X1571500D02*
D03*
X1541500D02*
D03*
X1528500D02*
D03*
X1676500Y230000D02*
D03*
X1663500D02*
D03*
X1423500Y230000D02*
D03*
X1436500D02*
D03*
X1256500Y60000D02*
D03*
X1243500D02*
D03*
X1256500Y45000D02*
D03*
X1243500D02*
D03*
X1256500Y30000D02*
D03*
X1243500D02*
D03*
X1256500Y15000D02*
D03*
X1243500D02*
D03*
D16*
X1992500Y66251D02*
D03*
X1972500D02*
D03*
X1977500D02*
D03*
X1982500D02*
D03*
X1987500D02*
D03*
X1967500D02*
D03*
X1962500D02*
D03*
X1957500D02*
D03*
D17*
X1999000D02*
D03*
X2007000D02*
D03*
X1951500D02*
D03*
X1943000D02*
D03*
D18*
X1638650Y68350D02*
D03*
Y81650D02*
D03*
X1621350D02*
D03*
Y68350D02*
D03*
D19*
X1489500Y247000D02*
D03*
X1470500D02*
D03*
X1489500Y273000D02*
D03*
X1480000D02*
D03*
X1470500D02*
D03*
D20*
X1181250Y52540D02*
D03*
X1168750D02*
D03*
X1156250D02*
D03*
X1143750D02*
D03*
X1131250D02*
D03*
X1118750D02*
D03*
X881250D02*
D03*
X868750D02*
D03*
X856250D02*
D03*
X843750D02*
D03*
X831250D02*
D03*
X818750D02*
D03*
D21*
X1093250Y23540D02*
D03*
X1206750D02*
D03*
X793250D02*
D03*
X906750D02*
D03*
D22*
X1493000Y187500D02*
D03*
Y182500D02*
D03*
Y177500D02*
D03*
Y172500D02*
D03*
Y167500D02*
D03*
Y162500D02*
D03*
Y157500D02*
D03*
Y152500D02*
D03*
Y147500D02*
D03*
Y142500D02*
D03*
Y137500D02*
D03*
Y132500D02*
D03*
Y127500D02*
D03*
Y122500D02*
D03*
Y117500D02*
D03*
Y112500D02*
D03*
X1607000Y127500D02*
D03*
Y132500D02*
D03*
Y137500D02*
D03*
Y142500D02*
D03*
Y147500D02*
D03*
Y157500D02*
D03*
Y162500D02*
D03*
Y167500D02*
D03*
Y172500D02*
D03*
Y177500D02*
D03*
Y182500D02*
D03*
Y187500D02*
D03*
Y112500D02*
D03*
Y152500D02*
D03*
Y122500D02*
D03*
Y117500D02*
D03*
D23*
X1587500Y93000D02*
D03*
X1582500D02*
D03*
X1577500D02*
D03*
X1572500D02*
D03*
X1567500D02*
D03*
X1562500D02*
D03*
X1557500D02*
D03*
X1552500D02*
D03*
X1547500D02*
D03*
X1542500D02*
D03*
X1537500D02*
D03*
X1532500D02*
D03*
X1527500D02*
D03*
X1522500D02*
D03*
X1517500D02*
D03*
X1512500D02*
D03*
X1587500Y207000D02*
D03*
X1582500D02*
D03*
X1577500D02*
D03*
X1572500D02*
D03*
X1567500D02*
D03*
X1562500D02*
D03*
X1557500D02*
D03*
X1552500D02*
D03*
X1547500D02*
D03*
X1542500D02*
D03*
X1537500D02*
D03*
X1532500D02*
D03*
X1527500D02*
D03*
X1522500D02*
D03*
X1517500D02*
D03*
X1512500D02*
D03*
D39*
X1775000Y285000D02*
X1834454Y344454D01*
X1676500Y230000D02*
X1700000D01*
X1676500Y215000D02*
X1705000D01*
X1676500Y200000D02*
X1710000D01*
X1676500Y185000D02*
X1715000D01*
X1676500Y170000D02*
X1720000D01*
X1676500Y155000D02*
X1725000D01*
X1676500Y140000D02*
X1730000D01*
X1676500Y125000D02*
X1735000D01*
X1700000Y230000D02*
X1715000Y245000D01*
X1680000Y305000D02*
X1715000Y270000D01*
Y245000D02*
Y270000D01*
X1705000Y215000D02*
X1730000Y240000D01*
X870000Y320000D02*
X1685000Y320000D01*
X1730000Y275000D01*
Y240000D02*
Y275000D01*
X1710000Y200000D02*
X1745000Y235000D01*
X1690000Y335000D02*
X1745000Y280000D01*
Y235000D02*
Y280000D01*
X1715000Y185000D02*
X1760000Y230000D01*
X1720000Y170000D02*
X1775000Y225000D01*
X1725000Y155000D02*
X1790000Y220000D01*
X1730000Y140000D02*
X1805000Y215000D01*
X1735000Y125000D02*
X1820000Y210000D01*
X1700000Y345000D02*
X1760000Y285000D01*
Y230000D02*
Y285000D01*
X1775000Y225000D02*
Y285000D01*
X1840000Y330000D02*
X2540000D01*
X1790000Y220000D02*
Y280000D01*
X1840000Y330000D01*
X1805000Y215000D02*
Y275000D01*
X1845000Y315000D01*
X2975000D01*
X1820000Y210000D02*
Y270000D01*
X1850000Y300000D01*
X845000Y345000D02*
X870000Y320000D01*
X1305000Y335000D02*
X1310000D01*
X1690000Y335000D01*
X395000Y305000D02*
X1680000D01*
X1834454Y344454D02*
X2105000D01*
X845000Y345000D02*
X845000D01*
X350000Y350000D02*
X395000Y305000D01*
X335000Y480000D02*
X345000Y470000D01*
X280000Y345000D02*
X365000Y260000D01*
X320000Y330000D02*
X375000Y275000D01*
X335000Y340000D02*
X385000Y290000D01*
X1260000Y170000D02*
X1305000Y125000D01*
X1311213Y140000D02*
X1423500D01*
X1305000Y125000D02*
X1423500D01*
X1291066Y245000D02*
X1336066Y200000D01*
X1317426Y155000D02*
X1423500D01*
X325000Y200000D02*
X1272427D01*
X1317426Y155000D01*
X385000Y290000D02*
X1309706D01*
X1284853Y230000D02*
X1329853Y185000D01*
X1352706Y247000D02*
X1470500D01*
X1309706Y290000D02*
X1352706Y247000D01*
X335000Y215000D02*
X1278640D01*
X305000Y170000D02*
X1260000D01*
X1336066Y200000D02*
X1423500D01*
X315000Y185000D02*
X1266213D01*
X1278640Y215000D02*
X1323640Y170000D01*
X1266213Y185000D02*
X1311213Y140000D01*
X1329853Y185000D02*
X1423500D01*
X1323640Y170000D02*
X1423500D01*
X1342279Y215000D02*
X1423500D01*
X345000Y230000D02*
X1284853D01*
X365000Y260000D02*
X1297279D01*
X1342279Y215000D01*
X375000Y275000D02*
X1303492D01*
X1348492Y230000D02*
X1423500D01*
X1303492Y275000D02*
X1348492Y230000D01*
X355000Y245000D02*
X1291066D01*
X820000Y438500D02*
X821500Y440000D01*
X810000Y438500D02*
X820000D01*
X900000Y385000D02*
Y393500D01*
X821500Y440000D02*
X837000D01*
X875000Y460000D02*
X885000Y450000D01*
X847500Y460000D02*
X875000D01*
X837000Y449500D02*
X847500Y460000D01*
X822000Y449500D02*
X837000D01*
X821000Y450500D02*
X822000Y449500D01*
X863000Y430500D02*
X874500D01*
X855500D02*
X863000D01*
X874500D02*
X885000Y420000D01*
X845000Y420000D02*
X855500Y430500D01*
X863000Y440000D02*
X875000D01*
X863000Y449500D02*
X875000D01*
X800000Y430500D02*
X837000D01*
X800000Y480000D02*
Y840000D01*
X802500Y407500D02*
X823000D01*
X785000Y390000D02*
X802500Y407500D01*
X810000Y392500D02*
X823000D01*
X877000D02*
X894500Y375000D01*
X915000D02*
X930000Y390000D01*
X894500Y375000D02*
X915000D01*
X877000Y407500D02*
X960000D01*
X335000Y340000D02*
Y390000D01*
X320000Y330000D02*
Y400000D01*
X190000Y285000D02*
X305000Y170000D01*
X250000Y325000D02*
X345000Y230000D01*
X220000Y305000D02*
X325000Y200000D01*
X205000Y295000D02*
X315000Y185000D01*
X265000Y335000D02*
X355000Y245000D01*
X235000Y315000D02*
X335000Y215000D01*
X820500Y450000D02*
X821000Y450500D01*
X427000Y407500D02*
X510000D01*
X444500Y375000D02*
X465000D01*
X480000Y390000D01*
X427000Y392500D02*
X444500Y375000D01*
X360000Y392500D02*
X373000D01*
X335000Y390000D02*
X352500Y407500D01*
X373000D01*
X350000Y430500D02*
X387000D01*
X413000Y449500D02*
X425000D01*
X413000Y440000D02*
X425000D01*
X395000Y420000D02*
X405500Y430500D01*
X413000D02*
X424500D01*
X405500D02*
X413000D01*
X424500D02*
X435000Y420000D01*
X371000Y450500D02*
X372000Y449500D01*
X387000D01*
X397500Y460000D01*
X425000D01*
X435000Y450000D01*
X371500Y440000D02*
X387000D01*
X450000Y385000D02*
Y393500D01*
X370500Y450000D02*
X371000Y450500D01*
X360000Y438500D02*
X370000D01*
X371500Y440000D01*
X1327000Y407500D02*
X1410000D01*
X1344500Y375000D02*
X1365000D01*
X1380000Y390000D01*
X1327000Y392500D02*
X1344500Y375000D01*
X1260000Y392500D02*
X1273000D01*
X1235000Y390000D02*
X1252500Y407500D01*
X1273000D01*
X1250000Y430500D02*
X1287000D01*
X1250000Y480000D02*
Y840000D01*
X1313000Y449500D02*
X1325000D01*
X1313000Y440000D02*
X1325000D01*
X1295000Y420000D02*
X1305500Y430500D01*
X1313000D01*
X1271000Y450500D02*
X1272000Y449500D01*
X1287000D01*
X1297500Y460000D01*
X1325000D01*
X1335000Y450000D01*
X1271500Y440000D02*
X1287000D01*
X1350000Y385000D02*
Y393500D01*
X1270500Y450000D02*
X1271000Y450500D01*
X1260000Y438500D02*
X1270000D01*
X1271500Y440000D01*
X1777000Y407500D02*
X1860000D01*
X1794500Y375000D02*
X1815000D01*
X1830000Y390000D01*
X1777000Y392500D02*
X1794500Y375000D01*
X1710000Y392500D02*
X1723000D01*
X1685000Y390000D02*
X1702500Y407500D01*
X1723000D01*
X1700000Y430500D02*
X1737000D01*
X1763000Y449500D02*
X1775000D01*
X1763000Y440000D02*
X1775000D01*
X1650000Y420000D02*
X1745000D01*
X1755500Y430500D01*
X1763000D02*
X1774500D01*
X1755500D02*
X1763000D01*
X1774500D02*
X1785000Y420000D01*
X1721000Y450500D02*
X1722000Y449500D01*
X1737000D01*
X1747500Y460000D01*
X1775000D01*
X1785000Y450000D01*
X1721500Y440000D02*
X1737000D01*
X1800000Y385000D02*
Y393500D01*
X1720500Y450000D02*
X1721000Y450500D01*
X1710000Y438500D02*
X1720000D01*
X1721500Y440000D01*
X2227000Y407500D02*
X2310000D01*
X2244500Y375000D02*
X2265000D01*
X2280000Y390000D01*
X2227000Y392500D02*
X2244500Y375000D01*
X2160000Y392500D02*
X2173000D01*
X2135000Y390000D02*
X2152500Y407500D01*
X2173000D01*
X2150000Y430500D02*
X2187000D01*
X2150000Y480000D02*
Y840000D01*
X2213000Y449500D02*
X2225000D01*
X2213000Y440000D02*
X2225000D01*
X2195000Y420000D02*
X2205500Y430500D01*
X2235000Y420000D02*
X2570000D01*
X2213000Y430500D02*
X2224500D01*
X2205500D02*
X2213000D01*
X2224500D02*
X2235000Y420000D01*
X2171000Y450500D02*
X2172000Y449500D01*
X2187000D01*
X2197500Y460000D01*
X2225000D01*
X2235000Y450000D01*
X2171500Y440000D02*
X2187000D01*
X2250000Y385000D02*
Y393500D01*
X2170500Y450000D02*
X2171000Y450500D01*
X2160000Y438500D02*
X2170000D01*
X2171500Y440000D01*
X2677000Y407500D02*
X2760000D01*
X2694500Y375000D02*
X2715000D01*
X2730000Y390000D01*
X2677000Y392500D02*
X2694500Y375000D01*
X2610000Y392500D02*
X2623000D01*
X2585000Y390000D02*
X2602500Y407500D01*
X2623000D01*
X2600000Y430500D02*
X2637000D01*
X2600000Y480000D02*
Y840000D01*
X2663000Y449500D02*
X2675000D01*
X2663000Y440000D02*
X2675000D01*
X2645000Y420000D02*
X2655500Y430500D01*
X2663000D02*
X2674500D01*
X2655500D02*
X2663000D01*
X2674500D02*
X2685000Y420000D01*
X2621000Y450500D02*
X2622000Y449500D01*
X2637000D01*
X2647500Y460000D01*
X2675000D01*
X2685000Y450000D01*
X2621500Y440000D02*
X2637000D01*
X2700000Y385000D02*
Y393500D01*
X2620500Y450000D02*
X2621000Y450500D01*
X2610000Y438500D02*
X2620000D01*
X2621500Y440000D01*
X3127000Y407500D02*
X3210000D01*
X3144500Y375000D02*
X3165000D01*
X3180000Y390000D01*
X3127000Y392500D02*
X3144500Y375000D01*
X3060000Y392500D02*
X3073000D01*
X3035000Y390000D02*
X3052500Y407500D01*
X3073000D01*
X3050000Y430500D02*
X3087000D01*
X3113000Y449500D02*
X3125000D01*
X3113000Y440000D02*
X3125000D01*
X3095000Y420000D02*
X3105500Y430500D01*
X3135000Y420000D02*
X3460000D01*
X3113000Y430500D02*
X3124500D01*
X3105500D02*
X3113000D01*
X3124500D02*
X3135000Y420000D01*
X3071000Y450500D02*
X3072000Y449500D01*
X3087000D01*
X3097500Y460000D01*
X3125000D01*
X3135000Y450000D01*
X3071500Y440000D02*
X3087000D01*
X3150000Y385000D02*
Y393500D01*
X3070500Y450000D02*
X3071000Y450500D01*
X3060000Y438500D02*
X3070000D01*
X3071500Y440000D01*
X3577000Y407500D02*
X3660000D01*
X3577000Y392500D02*
X3594500Y375000D01*
X3510000Y392500D02*
X3523000D01*
X3485000Y390000D02*
X3502500Y407500D01*
X3523000D01*
X3500000Y430500D02*
X3537000D01*
X3500000Y480000D02*
Y840000D01*
X3563000Y449500D02*
X3575000D01*
X3563000Y440000D02*
X3575000D01*
X3545000Y420000D02*
X3555500Y430500D01*
X3563000D01*
X3521000Y450500D02*
X3522000Y449500D01*
X3537000D01*
X3521500Y440000D02*
X3537000D01*
X3600000Y385000D02*
Y393500D01*
X3520500Y450000D02*
X3521000Y450500D01*
X3510000Y438500D02*
X3520000D01*
X3521500Y440000D01*
X427000Y857500D02*
X510000D01*
X444500Y825000D02*
X465000D01*
X480000Y840000D01*
X427000Y842500D02*
X444500Y825000D01*
X360000Y842500D02*
X373000D01*
X335000Y840000D02*
X352500Y857500D01*
X373000D01*
X350000Y880500D02*
X387000D01*
X413000Y899500D02*
X425000D01*
X413000Y890000D02*
X425000D01*
X395000Y870000D02*
X405500Y880500D01*
X435000Y870000D02*
X750000D01*
X413000Y880500D02*
X424500D01*
X405500D02*
X413000D01*
X424500D02*
X435000Y870000D01*
X371000Y900500D02*
X372000Y899500D01*
X387000D01*
X397500Y910000D01*
X425000D01*
X435000Y900000D02*
X820500D01*
X425000Y910000D02*
X435000Y900000D01*
X371500Y890000D02*
X387000D01*
X450000Y835000D02*
Y843500D01*
X370500Y900000D02*
X371000Y900500D01*
X360000Y888500D02*
X370000D01*
X371500Y890000D01*
X877000Y857500D02*
X960000D01*
X894500Y825000D02*
X915000D01*
X930000Y840000D01*
X877000Y842500D02*
X894500Y825000D01*
X785000Y840000D02*
X802500Y857500D01*
X823000D01*
X800000Y880500D02*
X837000D01*
X863000Y899500D02*
X875000D01*
X863000Y890000D02*
X875000D01*
X750000Y870000D02*
X845000D01*
X855500Y880500D01*
X863000D02*
X874500D01*
X855500D02*
X863000D01*
X821000Y900500D02*
X822000Y899500D01*
X837000D01*
X847500Y910000D01*
X875000D01*
X885000Y900000D01*
X821500Y890000D02*
X837000D01*
X900000Y835000D02*
Y843500D01*
X820500Y900000D02*
X821000Y900500D01*
X810000Y888500D02*
X820000D01*
X821500Y890000D01*
X1327000Y857500D02*
X1410000D01*
X1344500Y825000D02*
X1365000D01*
X1380000Y840000D01*
X1327000Y842500D02*
X1344500Y825000D01*
X1260000Y842500D02*
X1273000D01*
X1250000Y880500D02*
X1287000D01*
X1250000Y930000D02*
Y1290000D01*
X1313000Y899500D02*
X1325000D01*
X1313000Y890000D02*
X1325000D01*
X1313000Y880500D02*
X1324500D01*
X1305500D02*
X1313000D01*
X1271000Y900500D02*
X1272000Y899500D01*
X1287000D01*
X1297500Y910000D01*
X1325000D01*
X1335000Y900000D01*
X1271500Y890000D02*
X1287000D01*
X1350000Y835000D02*
Y843500D01*
X1270500Y900000D02*
X1271000Y900500D01*
X1260000Y888500D02*
X1270000D01*
X1271500Y890000D01*
X1777000Y857500D02*
X1860000D01*
X1794500Y825000D02*
X1815000D01*
X1830000Y840000D01*
X1777000Y842500D02*
X1794500Y825000D01*
X1710000Y842500D02*
X1723000D01*
X1685000Y840000D02*
X1702500Y857500D01*
X1723000D01*
X1700000Y880500D02*
X1737000D01*
X1763000Y899500D02*
X1775000D01*
X1763000Y890000D02*
X1775000D01*
X1763000Y880500D02*
X1774500D01*
X1721000Y900500D02*
X1722000Y899500D01*
X1737000D01*
X1747500Y910000D01*
X1775000D01*
X1785000Y900000D01*
X1721500Y890000D02*
X1737000D01*
X1800000Y835000D02*
Y843500D01*
X1720500Y900000D02*
X1721000Y900500D01*
X1710000Y888500D02*
X1720000D01*
X1721500Y890000D01*
X2227000Y857500D02*
X2310000D01*
X2244500Y825000D02*
X2265000D01*
X2280000Y840000D01*
X2227000Y842500D02*
X2244500Y825000D01*
X2160000Y842500D02*
X2173000D01*
X2135000Y840000D02*
X2152500Y857500D01*
X2173000D01*
X2150000Y880500D02*
X2187000D01*
X2150000Y930000D02*
Y1290000D01*
X2213000Y899500D02*
X2225000D01*
X2213000Y890000D02*
X2225000D01*
X2213000Y880500D02*
X2224500D01*
X2205500D02*
X2213000D01*
X2171000Y900500D02*
X2172000Y899500D01*
X2187000D01*
X2197500Y910000D01*
X2225000D01*
X2235000Y900000D01*
X2171500Y890000D02*
X2187000D01*
X2250000Y835000D02*
Y843500D01*
X2170500Y900000D02*
X2171000Y900500D01*
X2160000Y888500D02*
X2170000D01*
X2171500Y890000D01*
X2677000Y857500D02*
X2760000D01*
X2694500Y825000D02*
X2715000D01*
X2730000Y840000D01*
X2677000Y842500D02*
X2694500Y825000D01*
X2610000Y842500D02*
X2623000D01*
X2585000Y840000D02*
X2602500Y857500D01*
X2623000D01*
X2600000Y880500D02*
X2637000D01*
X2663000Y899500D02*
X2675000D01*
X2663000Y890000D02*
X2675000D01*
X2663000Y880500D02*
X2674500D01*
X2655500D02*
X2663000D01*
X2621000Y900500D02*
X2622000Y899500D01*
X2637000D01*
X2647500Y910000D01*
X2675000D01*
X2685000Y900000D01*
X2621500Y890000D02*
X2637000D01*
X2700000Y835000D02*
Y843500D01*
X2620500Y900000D02*
X2621000Y900500D01*
X2610000Y888500D02*
X2620000D01*
X2621500Y890000D01*
X3127000Y857500D02*
X3210000D01*
X3144500Y825000D02*
X3165000D01*
X3180000Y840000D01*
X3127000Y842500D02*
X3144500Y825000D01*
X3060000Y842500D02*
X3073000D01*
X3035000Y840000D02*
X3052500Y857500D01*
X3073000D01*
X3050000Y880500D02*
X3087000D01*
X3050000Y930000D02*
Y1290000D01*
X3113000Y899500D02*
X3125000D01*
X3113000Y890000D02*
X3125000D01*
X3113000Y880500D02*
X3124500D01*
X3105500D02*
X3113000D01*
X3071000Y900500D02*
X3072000Y899500D01*
X3087000D01*
X3097500Y910000D01*
X3125000D01*
X3135000Y900000D01*
X3071500Y890000D02*
X3087000D01*
X3150000Y835000D02*
Y843500D01*
X3070500Y900000D02*
X3071000Y900500D01*
X3060000Y888500D02*
X3070000D01*
X3071500Y890000D01*
X3577000Y857500D02*
X3660000D01*
X3577000Y842500D02*
X3594500Y825000D01*
X3510000Y842500D02*
X3523000D01*
X3485000Y840000D02*
X3502500Y857500D01*
X3523000D01*
X3500000Y880500D02*
X3537000D01*
X3500000Y930000D02*
Y1290000D01*
X3563000Y899500D02*
X3575000D01*
X3563000Y890000D02*
X3575000D01*
X3555500Y880500D02*
X3563000D01*
X3521000Y900500D02*
X3522000Y899500D01*
X3537000D01*
X3521500Y890000D02*
X3537000D01*
X3600000Y835000D02*
Y843500D01*
X3520500Y900000D02*
X3521000Y900500D01*
X3510000Y888500D02*
X3520000D01*
X3521500Y890000D01*
X427000Y1307500D02*
X510000D01*
X444500Y1275000D02*
X465000D01*
X480000Y1290000D01*
X427000Y1292500D02*
X444500Y1275000D01*
X360000Y1292500D02*
X373000D01*
X352500Y1307500D02*
X373000D01*
X350000Y1330500D02*
X387000D01*
X413000Y1349500D02*
X425000D01*
X413000Y1340000D02*
X425000D01*
X395000Y1320000D02*
X405500Y1330500D01*
X435000Y1320000D02*
X700000D01*
X413000Y1330500D02*
X424500D01*
X405500D02*
X413000D01*
X424500D02*
X435000Y1320000D01*
X387000Y1349500D02*
X397500Y1360000D01*
X371500Y1340000D02*
X387000D01*
X450000Y1285000D02*
Y1293500D01*
X360000Y1338500D02*
X370000D01*
X371500Y1340000D01*
X877000Y1307500D02*
X960000D01*
X894500Y1275000D02*
X915000D01*
X930000Y1290000D01*
X877000Y1292500D02*
X894500Y1275000D01*
X810000Y1292500D02*
X823000D01*
X785000Y1290000D02*
X802500Y1307500D01*
X823000D01*
X800000Y1330500D02*
X837000D01*
X800000Y1380000D02*
Y1740000D01*
X863000Y1349500D02*
X875000D01*
X863000Y1340000D02*
X875000D01*
X845000Y1320000D02*
X855500Y1330500D01*
X885000Y1320000D02*
X1150000D01*
X863000Y1330500D02*
X874500D01*
X855500D02*
X863000D01*
X874500D02*
X885000Y1320000D01*
X837000Y1349500D02*
X847500Y1360000D01*
X875000D01*
X885000Y1350000D01*
X821500Y1340000D02*
X837000D01*
X900000Y1285000D02*
Y1293500D01*
X810000Y1338500D02*
X820000D01*
X821500Y1340000D01*
X1327000Y1307500D02*
X1410000D01*
X1344500Y1275000D02*
X1365000D01*
X1380000Y1290000D01*
X1327000Y1292500D02*
X1344500Y1275000D01*
X1260000Y1292500D02*
X1273000D01*
X1235000Y1290000D02*
X1252500Y1307500D01*
X1273000D01*
X1250000Y1330500D02*
X1287000D01*
X1250000Y1380000D02*
Y1740000D01*
X1313000Y1349500D02*
X1325000D01*
X1313000Y1340000D02*
X1325000D01*
X1295000Y1320000D02*
X1305500Y1330500D01*
X1335000Y1320000D02*
X1600000D01*
X1313000Y1330500D02*
X1324500D01*
X1305500D02*
X1313000D01*
X1324500D02*
X1335000Y1320000D01*
X1271000Y1350500D02*
X1272000Y1349500D01*
X1287000D01*
X1297500Y1360000D01*
X1325000D01*
X1335000Y1350000D01*
X1271500Y1340000D02*
X1287000D01*
X1350000Y1285000D02*
Y1293500D01*
X1270500Y1350000D02*
X1271000Y1350500D01*
X1260000Y1338500D02*
X1270000D01*
X1271500Y1340000D01*
X1777000Y1307500D02*
X1860000D01*
X1794500Y1275000D02*
X1815000D01*
X1830000Y1290000D01*
X1777000Y1292500D02*
X1794500Y1275000D01*
X1710000Y1292500D02*
X1723000D01*
X1685000Y1290000D02*
X1702500Y1307500D01*
X1723000D01*
X1700000Y1330500D02*
X1737000D01*
X1700000Y1380000D02*
Y1740000D01*
X1763000Y1349500D02*
X1775000D01*
X1763000Y1340000D02*
X1775000D01*
X1745000Y1320000D02*
X1755500Y1330500D01*
X1763000D02*
X1774500D01*
X1755500D02*
X1763000D01*
X1774500D02*
X1785000Y1320000D01*
X1721000Y1350500D02*
X1722000Y1349500D01*
X1737000D01*
X1747500Y1360000D01*
X1775000D01*
X1721500Y1340000D02*
X1737000D01*
X1800000Y1285000D02*
Y1293500D01*
X1720500Y1350000D02*
X1721000Y1350500D01*
X1710000Y1338500D02*
X1720000D01*
X1721500Y1340000D01*
X2227000Y1307500D02*
X2310000D01*
X2244500Y1275000D02*
X2265000D01*
X2280000Y1290000D01*
X2227000Y1292500D02*
X2244500Y1275000D01*
X2160000Y1292500D02*
X2173000D01*
X2135000Y1290000D02*
X2152500Y1307500D01*
X2173000D01*
X2150000Y1330500D02*
X2187000D01*
X2213000Y1349500D02*
X2225000D01*
X2213000Y1340000D02*
X2225000D01*
X2195000Y1320000D02*
X2205500Y1330500D01*
X2235000Y1320000D02*
X2500000D01*
X2213000Y1330500D02*
X2224500D01*
X2205500D02*
X2213000D01*
X2224500D02*
X2235000Y1320000D01*
X2171000Y1350500D02*
X2172000Y1349500D01*
X2187000D01*
X2197500Y1360000D01*
X2225000D01*
X2235000Y1350000D01*
X2171500Y1340000D02*
X2187000D01*
X2250000Y1285000D02*
Y1293500D01*
X2170500Y1350000D02*
X2171000Y1350500D01*
X2160000Y1338500D02*
X2170000D01*
X2171500Y1340000D01*
X2677000Y1307500D02*
X2760000D01*
X2694500Y1275000D02*
X2715000D01*
X2730000Y1290000D01*
X2677000Y1292500D02*
X2694500Y1275000D01*
X2610000Y1292500D02*
X2623000D01*
X2585000Y1290000D02*
X2602500Y1307500D01*
X2623000D01*
X2600000Y1330500D02*
X2637000D01*
X2663000Y1349500D02*
X2675000D01*
X2663000Y1340000D02*
X2675000D01*
X2645000Y1320000D02*
X2655500Y1330500D01*
X2663000D02*
X2674500D01*
X2655500D02*
X2663000D01*
X2674500D02*
X2685000Y1320000D01*
X2621000Y1350500D02*
X2622000Y1349500D01*
X2637000D01*
X2647500Y1360000D01*
X2675000D01*
X2685000Y1350000D01*
X2621500Y1340000D02*
X2637000D01*
X2700000Y1285000D02*
Y1293500D01*
X2620500Y1350000D02*
X2621000Y1350500D01*
X2610000Y1338500D02*
X2620000D01*
X2621500Y1340000D01*
X3127000Y1307500D02*
X3210000D01*
X3144500Y1275000D02*
X3165000D01*
X3180000Y1290000D01*
X3127000Y1292500D02*
X3144500Y1275000D01*
X3060000Y1292500D02*
X3073000D01*
X3035000Y1290000D02*
X3052500Y1307500D01*
X3073000D01*
X3050000Y1330500D02*
X3087000D01*
X3113000Y1349500D02*
X3125000D01*
X3113000Y1340000D02*
X3125000D01*
X3095000Y1320000D02*
X3105500Y1330500D01*
X3113000D02*
X3124500D01*
X3105500D02*
X3113000D01*
X3124500D02*
X3135000Y1320000D01*
X3071000Y1350500D02*
X3072000Y1349500D01*
X3087000D01*
X3097500Y1360000D01*
X3125000D01*
X3135000Y1350000D01*
X3071500Y1340000D02*
X3087000D01*
X3150000Y1285000D02*
Y1293500D01*
X3070500Y1350000D02*
X3071000Y1350500D01*
X3060000Y1338500D02*
X3070000D01*
X3071500Y1340000D01*
X3577000Y1307500D02*
X3660000D01*
X3577000Y1292500D02*
X3594500Y1275000D01*
X3510000Y1292500D02*
X3523000D01*
X3485000Y1290000D02*
X3502500Y1307500D01*
X3523000D01*
X3500000Y1330500D02*
X3537000D01*
X3563000Y1349500D02*
X3575000D01*
X3563000Y1340000D02*
X3575000D01*
X3545000Y1320000D02*
X3555500Y1330500D01*
X3563000D01*
X3521000Y1350500D02*
X3522000Y1349500D01*
X3537000D01*
X3521500Y1340000D02*
X3537000D01*
X3600000Y1285000D02*
Y1293500D01*
X3520500Y1350000D02*
X3521000Y1350500D01*
X3510000Y1338500D02*
X3520000D01*
X3521500Y1340000D01*
X427000Y1757500D02*
X510000D01*
X444500Y1725000D02*
X465000D01*
X480000Y1740000D01*
X427000Y1742500D02*
X444500Y1725000D01*
X360000Y1742500D02*
X373000D01*
X352500Y1757500D02*
X373000D01*
X350000Y1780500D02*
X387000D01*
X413000Y1799500D02*
X425000D01*
X413000Y1790000D02*
X425000D01*
X395000Y1770000D02*
X405500Y1780500D01*
X435000Y1770000D02*
X750000D01*
X413000Y1780500D02*
X424500D01*
X405500D02*
X413000D01*
X424500D02*
X435000Y1770000D01*
X371000Y1800500D02*
X372000Y1799500D01*
X387000D01*
X397500Y1810000D01*
X425000D01*
X435000Y1800000D02*
X820500D01*
X425000Y1810000D02*
X435000Y1800000D01*
X371500Y1790000D02*
X387000D01*
X450000Y1735000D02*
Y1743500D01*
X370500Y1800000D02*
X371000Y1800500D01*
X360000Y1788500D02*
X370000D01*
X371500Y1790000D01*
X877000Y1757500D02*
X960000D01*
X894500Y1725000D02*
X915000D01*
X930000Y1740000D01*
X877000Y1742500D02*
X894500Y1725000D01*
X810000Y1742500D02*
X823000D01*
X785000Y1740000D02*
X802500Y1757500D01*
X823000D01*
X800000Y1780500D02*
X837000D01*
X863000Y1799500D02*
X875000D01*
X863000Y1790000D02*
X875000D01*
X750000Y1770000D02*
X845000D01*
X855500Y1780500D01*
X885000Y1770000D02*
X1150000D01*
X863000Y1780500D02*
X874500D01*
X855500D02*
X863000D01*
X874500D02*
X885000Y1770000D01*
X821000Y1800500D02*
X822000Y1799500D01*
X837000D01*
X847500Y1810000D01*
X875000D01*
X885000Y1800000D01*
X821500Y1790000D02*
X837000D01*
X900000Y1735000D02*
Y1743500D01*
X820500Y1800000D02*
X821000Y1800500D01*
X810000Y1788500D02*
X820000D01*
X821500Y1790000D01*
X1327000Y1757500D02*
X1410000D01*
X1344500Y1725000D02*
X1365000D01*
X1380000Y1740000D01*
X1327000Y1742500D02*
X1344500Y1725000D01*
X1260000Y1742500D02*
X1273000D01*
X1235000Y1740000D02*
X1252500Y1757500D01*
X1273000D01*
X1250000Y1780500D02*
X1287000D01*
X1313000Y1799500D02*
X1325000D01*
X1313000Y1790000D02*
X1325000D01*
X1295000Y1770000D02*
X1305500Y1780500D01*
X1313000D02*
X1324500D01*
X1305500D02*
X1313000D01*
X1324500D02*
X1335000Y1770000D01*
X1271000Y1800500D02*
X1272000Y1799500D01*
X1287000D01*
X1297500Y1810000D01*
X1325000D01*
X1335000Y1800000D01*
X1271500Y1790000D02*
X1287000D01*
X1350000Y1735000D02*
Y1743500D01*
X1270500Y1800000D02*
X1271000Y1800500D01*
X1260000Y1788500D02*
X1270000D01*
X1271500Y1790000D01*
X1777000Y1757500D02*
X1860000D01*
X1794500Y1725000D02*
X1815000D01*
X1830000Y1740000D01*
X1777000Y1742500D02*
X1794500Y1725000D01*
X1710000Y1742500D02*
X1723000D01*
X1685000Y1740000D02*
X1702500Y1757500D01*
X1723000D01*
X1700000Y1780500D02*
X1737000D01*
X1763000Y1799500D02*
X1775000D01*
X1763000Y1790000D02*
X1775000D01*
X1650000Y1770000D02*
X1745000D01*
X1755500Y1780500D01*
X1785000Y1770000D02*
X2100000D01*
X1763000Y1780500D02*
X1774500D01*
X1755500D02*
X1763000D01*
X1774500D02*
X1785000Y1770000D01*
X1721000Y1800500D02*
X1722000Y1799500D01*
X1737000D01*
X1747500Y1810000D01*
X1775000D01*
X1785000Y1800000D01*
X1721500Y1790000D02*
X1737000D01*
X1800000Y1735000D02*
Y1743500D01*
X1720500Y1800000D02*
X1721000Y1800500D01*
X1710000Y1788500D02*
X1720000D01*
X1721500Y1790000D01*
X2227000Y1757500D02*
X2310000D01*
X2244500Y1725000D02*
X2265000D01*
X2280000Y1740000D01*
X2227000Y1742500D02*
X2244500Y1725000D01*
X2160000Y1742500D02*
X2173000D01*
X2135000Y1740000D02*
X2152500Y1757500D01*
X2173000D01*
X2150000Y1780500D02*
X2187000D01*
X2213000Y1799500D02*
X2225000D01*
X2213000Y1790000D02*
X2225000D01*
X2100000Y1770000D02*
X2195000D01*
X2205500Y1780500D01*
X2235000Y1770000D02*
X2500000D01*
X2213000Y1780500D02*
X2224500D01*
X2205500D02*
X2213000D01*
X2224500D02*
X2235000Y1770000D01*
X2171000Y1800500D02*
X2172000Y1799500D01*
X2187000D01*
X2197500Y1810000D01*
X2225000D01*
X2235000Y1800000D01*
X2171500Y1790000D02*
X2187000D01*
X2250000Y1735000D02*
Y1743500D01*
X2170500Y1800000D02*
X2171000Y1800500D01*
X2160000Y1788500D02*
X2170000D01*
X2171500Y1790000D01*
X2677000Y1757500D02*
X2760000D01*
X2694500Y1725000D02*
X2715000D01*
X2730000Y1740000D01*
X2677000Y1742500D02*
X2694500Y1725000D01*
X2610000Y1742500D02*
X2623000D01*
X2585000Y1740000D02*
X2602500Y1757500D01*
X2623000D01*
X2600000Y1780500D02*
X2637000D01*
X2663000Y1799500D02*
X2675000D01*
X2663000Y1790000D02*
X2675000D01*
X2645000Y1770000D02*
X2655500Y1780500D01*
X2685000Y1770000D02*
X3000000D01*
X2663000Y1780500D02*
X2674500D01*
X2655500D02*
X2663000D01*
X2674500D02*
X2685000Y1770000D01*
X2621000Y1800500D02*
X2622000Y1799500D01*
X2637000D01*
X2647500Y1810000D01*
X2675000D01*
X2685000Y1800000D01*
X2621500Y1790000D02*
X2637000D01*
X2700000Y1735000D02*
Y1743500D01*
X2620500Y1800000D02*
X2621000Y1800500D01*
X2610000Y1788500D02*
X2620000D01*
X2621500Y1790000D01*
X3127000Y1757500D02*
X3210000D01*
X3144500Y1725000D02*
X3165000D01*
X3180000Y1740000D01*
X3127000Y1742500D02*
X3144500Y1725000D01*
X3060000Y1742500D02*
X3073000D01*
X3035000Y1740000D02*
X3052500Y1757500D01*
X3073000D01*
X3050000Y1780500D02*
X3087000D01*
X3113000Y1799500D02*
X3125000D01*
X3113000Y1790000D02*
X3125000D01*
X3000000Y1770000D02*
X3095000D01*
X3105500Y1780500D01*
X3135000Y1770000D02*
X3450000D01*
X3113000Y1780500D02*
X3124500D01*
X3105500D02*
X3113000D01*
X3124500D02*
X3135000Y1770000D01*
X3071000Y1800500D02*
X3072000Y1799500D01*
X3087000D01*
X3097500Y1810000D01*
X3125000D01*
X3135000Y1800000D01*
X3071500Y1790000D02*
X3087000D01*
X3150000Y1735000D02*
Y1743500D01*
X3070500Y1800000D02*
X3071000Y1800500D01*
X3060000Y1788500D02*
X3070000D01*
X3071500Y1790000D01*
X3577000Y1757500D02*
X3660000D01*
X3577000Y1742500D02*
X3594500Y1725000D01*
X3510000Y1742500D02*
X3523000D01*
X3485000Y1740000D02*
X3502500Y1757500D01*
X3523000D01*
X3500000Y1780500D02*
X3537000D01*
X3563000Y1799500D02*
X3575000D01*
X3563000Y1790000D02*
X3575000D01*
X3450000Y1770000D02*
X3545000D01*
X3555500Y1780500D01*
X3563000D01*
X3521000Y1800500D02*
X3522000Y1799500D01*
X3537000D01*
X3521500Y1790000D02*
X3537000D01*
X3600000Y1735000D02*
Y1743500D01*
X3520500Y1800000D02*
X3521000Y1800500D01*
X3510000Y1788500D02*
X3520000D01*
X3521500Y1790000D01*
X427000Y2207500D02*
X510000D01*
X444500Y2175000D02*
X465000D01*
X480000Y2190000D01*
X427000Y2192500D02*
X444500Y2175000D01*
X360000Y2192500D02*
X373000D01*
X352500Y2207500D02*
X373000D01*
X350000Y2230500D02*
X387000D01*
X413000Y2249500D02*
X425000D01*
X413000Y2240000D02*
X425000D01*
X395000Y2220000D02*
X405500Y2230500D01*
X413000D02*
X424500D01*
X405500D02*
X413000D01*
X424500D02*
X435000Y2220000D01*
X387000Y2249500D02*
X397500Y2260000D01*
X425000D01*
X435000Y2250000D01*
X371500Y2240000D02*
X387000D01*
X450000Y2185000D02*
Y2193500D01*
X360000Y2238500D02*
X370000D01*
X371500Y2240000D01*
X877000Y2207500D02*
X960000D01*
X877000Y2192500D02*
X894500Y2175000D01*
X810000Y2192500D02*
X823000D01*
X800000Y2230500D02*
X837000D01*
X863000Y2249500D02*
X875000D01*
X863000Y2240000D02*
X875000D01*
X845000Y2220000D02*
X855500Y2230500D01*
X863000D02*
X874500D01*
X855500D02*
X863000D01*
X874500D02*
X885000Y2220000D01*
X821000Y2250500D02*
X822000Y2249500D01*
X837000D01*
X847500Y2260000D01*
X875000D01*
X885000Y2250000D01*
X821500Y2240000D02*
X837000D01*
X900000Y2185000D02*
Y2193500D01*
X820500Y2250000D02*
X821000Y2250500D01*
X810000Y2238500D02*
X820000D01*
X821500Y2240000D01*
X1327000Y2207500D02*
X1410000D01*
X1344500Y2175000D02*
X1365000D01*
X1380000Y2190000D01*
X1327000Y2192500D02*
X1344500Y2175000D01*
X1260000Y2192500D02*
X1273000D01*
X1235000Y2190000D02*
X1252500Y2207500D01*
X1273000D01*
X1250000Y2230500D02*
X1287000D01*
X1313000Y2249500D02*
X1325000D01*
X1313000Y2240000D02*
X1325000D01*
X1295000Y2220000D02*
X1305500Y2230500D01*
X1313000D02*
X1324500D01*
X1305500D02*
X1313000D01*
X1324500D02*
X1335000Y2220000D01*
X1271000Y2250500D02*
X1272000Y2249500D01*
X1287000D01*
X1297500Y2260000D01*
X1325000D01*
X1335000Y2250000D01*
X1271500Y2240000D02*
X1287000D01*
X1350000Y2185000D02*
Y2193500D01*
X1270500Y2250000D02*
X1271000Y2250500D01*
X1260000Y2238500D02*
X1270000D01*
X1271500Y2240000D01*
X1777000Y2207500D02*
X1860000D01*
X1794500Y2175000D02*
X1815000D01*
X1830000Y2190000D01*
X1777000Y2192500D02*
X1794500Y2175000D01*
X1710000Y2192500D02*
X1723000D01*
X1685000Y2190000D02*
X1702500Y2207500D01*
X1723000D01*
X1700000Y2230500D02*
X1737000D01*
X1763000Y2249500D02*
X1775000D01*
X1763000Y2240000D02*
X1775000D01*
X1745000Y2220000D02*
X1755500Y2230500D01*
X1785000Y2220000D02*
X2050000D01*
X1763000Y2230500D02*
X1774500D01*
X1755500D02*
X1763000D01*
X1774500D02*
X1785000Y2220000D01*
X1721000Y2250500D02*
X1722000Y2249500D01*
X1737000D01*
X1747500Y2260000D01*
X1775000D01*
X1785000Y2250000D02*
X2050000D01*
X1775000Y2260000D02*
X1785000Y2250000D01*
X1721500Y2240000D02*
X1737000D01*
X1800000Y2185000D02*
Y2193500D01*
X1720500Y2250000D02*
X1721000Y2250500D01*
X1710000Y2238500D02*
X1720000D01*
X1721500Y2240000D01*
X2227000Y2207500D02*
X2310000D01*
X2244500Y2175000D02*
X2265000D01*
X2280000Y2190000D01*
X2227000Y2192500D02*
X2244500Y2175000D01*
X2160000Y2192500D02*
X2173000D01*
X2135000Y2190000D02*
X2152500Y2207500D01*
X2173000D01*
X2150000Y2230500D02*
X2187000D01*
X2213000Y2249500D02*
X2225000D01*
X2213000Y2240000D02*
X2225000D01*
X2195000Y2220000D02*
X2205500Y2230500D01*
X2213000D02*
X2224500D01*
X2205500D02*
X2213000D01*
X2224500D02*
X2235000Y2220000D01*
X2171000Y2250500D02*
X2172000Y2249500D01*
X2187000D01*
X2197500Y2260000D01*
X2171500Y2240000D02*
X2187000D01*
X2250000Y2185000D02*
Y2193500D01*
X2170500Y2250000D02*
X2171000Y2250500D01*
X2160000Y2238500D02*
X2170000D01*
X2171500Y2240000D01*
X2677000Y2207500D02*
X2760000D01*
X2694500Y2175000D02*
X2715000D01*
X2730000Y2190000D01*
X2677000Y2192500D02*
X2694500Y2175000D01*
X2610000Y2192500D02*
X2623000D01*
X2585000Y2190000D02*
X2602500Y2207500D01*
X2623000D01*
X2600000Y2230500D02*
X2637000D01*
X2663000Y2249500D02*
X2675000D01*
X2663000Y2240000D02*
X2675000D01*
X2645000Y2220000D02*
X2655500Y2230500D01*
X2663000D02*
X2674500D01*
X2655500D02*
X2663000D01*
X2674500D02*
X2685000Y2220000D01*
X2621000Y2250500D02*
X2622000Y2249500D01*
X2637000D01*
X2647500Y2260000D01*
X2675000D01*
X2685000Y2250000D01*
X2621500Y2240000D02*
X2637000D01*
X2700000Y2185000D02*
Y2193500D01*
X2620500Y2250000D02*
X2621000Y2250500D01*
X2610000Y2238500D02*
X2620000D01*
X2621500Y2240000D01*
X3127000Y2207500D02*
X3210000D01*
X3144500Y2175000D02*
X3165000D01*
X3180000Y2190000D01*
X3127000Y2192500D02*
X3144500Y2175000D01*
X3060000Y2192500D02*
X3073000D01*
X3035000Y2190000D02*
X3052500Y2207500D01*
X3073000D01*
X3050000Y2230500D02*
X3087000D01*
X3113000Y2249500D02*
X3125000D01*
X3113000Y2240000D02*
X3125000D01*
X3095000Y2220000D02*
X3105500Y2230500D01*
X3113000D02*
X3124500D01*
X3105500D02*
X3113000D01*
X3124500D02*
X3135000Y2220000D01*
X3071000Y2250500D02*
X3072000Y2249500D01*
X3087000D01*
X3097500Y2260000D01*
X3125000D01*
X3135000Y2250000D01*
X3071500Y2240000D02*
X3087000D01*
X3150000Y2185000D02*
Y2193500D01*
X3070500Y2250000D02*
X3071000Y2250500D01*
X3060000Y2238500D02*
X3070000D01*
X3071500Y2240000D01*
X3577000Y2207500D02*
X3660000D01*
X3577000Y2192500D02*
X3594500Y2175000D01*
X3510000Y2192500D02*
X3523000D01*
X3485000Y2190000D02*
X3502500Y2207500D01*
X3523000D01*
X3500000Y2230500D02*
X3537000D01*
X3563000Y2249500D02*
X3575000D01*
X3563000Y2240000D02*
X3575000D01*
X3545000Y2220000D02*
X3555500Y2230500D01*
X3563000D01*
X3521000Y2250500D02*
X3522000Y2249500D01*
X3537000D01*
X3521500Y2240000D02*
X3537000D01*
X3600000Y2185000D02*
Y2193500D01*
X3520500Y2250000D02*
X3521000Y2250500D01*
X3510000Y2238500D02*
X3520000D01*
X3521500Y2240000D01*
X427000Y2657500D02*
X510000D01*
X444500Y2625000D02*
X465000D01*
X480000Y2640000D01*
X427000Y2642500D02*
X444500Y2625000D01*
X360000Y2642500D02*
X373000D01*
X350000Y2680500D02*
X387000D01*
X413000Y2699500D02*
X425000D01*
X413000Y2690000D02*
X425000D01*
X395000Y2670000D02*
X405500Y2680500D01*
X413000D02*
X424500D01*
X405500D02*
X413000D01*
X424500D02*
X435000Y2670000D01*
X371000Y2700500D02*
X372000Y2699500D01*
X387000D01*
X397500Y2710000D01*
X425000D01*
X435000Y2700000D01*
X371500Y2690000D02*
X387000D01*
X450000Y2635000D02*
Y2643500D01*
X370500Y2700000D02*
X371000Y2700500D01*
X360000Y2688500D02*
X370000D01*
X371500Y2690000D01*
X877000Y2657500D02*
X960000D01*
X894500Y2625000D02*
X915000D01*
X930000Y2640000D01*
X877000Y2642500D02*
X894500Y2625000D01*
X810000Y2642500D02*
X823000D01*
X785000Y2640000D02*
X802500Y2657500D01*
X823000D01*
X800000Y2680500D02*
X837000D01*
X863000Y2699500D02*
X875000D01*
X863000Y2690000D02*
X875000D01*
X845000Y2670000D02*
X855500Y2680500D01*
X863000D02*
X874500D01*
X855500D02*
X863000D01*
X874500D02*
X885000Y2670000D01*
X821000Y2700500D02*
X822000Y2699500D01*
X837000D01*
X847500Y2710000D01*
X875000D01*
X885000Y2700000D01*
X821500Y2690000D02*
X837000D01*
X900000Y2635000D02*
Y2643500D01*
X820500Y2700000D02*
X821000Y2700500D01*
X810000Y2688500D02*
X820000D01*
X821500Y2690000D01*
X1327000Y2657500D02*
X1410000D01*
X1344500Y2625000D02*
X1365000D01*
X1380000Y2640000D01*
X1327000Y2642500D02*
X1344500Y2625000D01*
X1260000Y2642500D02*
X1273000D01*
X1235000Y2640000D02*
X1252500Y2657500D01*
X1273000D01*
X1250000Y2680500D02*
X1287000D01*
X1313000Y2699500D02*
X1325000D01*
X1313000Y2690000D02*
X1325000D01*
X1295000Y2670000D02*
X1305500Y2680500D01*
X1313000D02*
X1324500D01*
X1305500D02*
X1313000D01*
X1324500D02*
X1335000Y2670000D01*
X1271000Y2700500D02*
X1272000Y2699500D01*
X1287000D01*
X1297500Y2710000D01*
X1325000D01*
X1335000Y2700000D01*
X1271500Y2690000D02*
X1287000D01*
X1350000Y2635000D02*
Y2643500D01*
X1270500Y2700000D02*
X1271000Y2700500D01*
X1260000Y2688500D02*
X1270000D01*
X1271500Y2690000D01*
X1777000Y2657500D02*
X1860000D01*
X1794500Y2625000D02*
X1815000D01*
X1830000Y2640000D01*
X1777000Y2642500D02*
X1794500Y2625000D01*
X1710000Y2642500D02*
X1723000D01*
X1685000Y2640000D02*
X1702500Y2657500D01*
X1723000D01*
X1700000Y2680500D02*
X1737000D01*
X1763000Y2699500D02*
X1775000D01*
X1763000Y2690000D02*
X1775000D01*
X1745000Y2670000D02*
X1755500Y2680500D01*
X1763000D02*
X1774500D01*
X1755500D02*
X1763000D01*
X1774500D02*
X1785000Y2670000D01*
X1721000Y2700500D02*
X1722000Y2699500D01*
X1737000D01*
X1747500Y2710000D01*
X1775000D01*
X1785000Y2700000D01*
X1721500Y2690000D02*
X1737000D01*
X1800000Y2635000D02*
Y2643500D01*
X1720500Y2700000D02*
X1721000Y2700500D01*
X1710000Y2688500D02*
X1720000D01*
X1721500Y2690000D01*
X2227000Y2657500D02*
X2310000D01*
X2227000Y2642500D02*
X2244500Y2625000D01*
X2135000Y2640000D02*
X2152500Y2657500D01*
X2173000D01*
X2150000Y2680500D02*
X2187000D01*
X2213000Y2699500D02*
X2225000D01*
X2213000Y2690000D02*
X2225000D01*
X2195000Y2670000D02*
X2205500Y2680500D01*
X2213000D02*
X2224500D01*
X2205500D02*
X2213000D01*
X2224500D02*
X2235000Y2670000D01*
X2171000Y2700500D02*
X2172000Y2699500D01*
X2187000D01*
X2197500Y2710000D01*
X2225000D01*
X2235000Y2700000D01*
X2171500Y2690000D02*
X2187000D01*
X2250000Y2635000D02*
Y2643500D01*
X2170500Y2700000D02*
X2171000Y2700500D01*
X2160000Y2688500D02*
X2170000D01*
X2171500Y2690000D01*
X2677000Y2657500D02*
X2760000D01*
X2694500Y2625000D02*
X2715000D01*
X2730000Y2640000D01*
X2677000Y2642500D02*
X2694500Y2625000D01*
X2610000Y2642500D02*
X2623000D01*
X2585000Y2640000D02*
X2602500Y2657500D01*
X2623000D01*
X2600000Y2680500D02*
X2637000D01*
X2663000Y2699500D02*
X2675000D01*
X2663000Y2690000D02*
X2675000D01*
X2645000Y2670000D02*
X2655500Y2680500D01*
X2663000D02*
X2674500D01*
X2655500D02*
X2663000D01*
X2674500D02*
X2685000Y2670000D01*
X2621000Y2700500D02*
X2622000Y2699500D01*
X2637000D01*
X2647500Y2710000D01*
X2675000D01*
X2685000Y2700000D01*
X2621500Y2690000D02*
X2637000D01*
X2700000Y2635000D02*
Y2643500D01*
X2620500Y2700000D02*
X2621000Y2700500D01*
X2610000Y2688500D02*
X2620000D01*
X2621500Y2690000D01*
X3127000Y2657500D02*
X3210000D01*
X3144500Y2625000D02*
X3165000D01*
X3180000Y2640000D01*
X3127000Y2642500D02*
X3144500Y2625000D01*
X3060000Y2642500D02*
X3073000D01*
X3035000Y2640000D02*
X3052500Y2657500D01*
X3073000D01*
X3050000Y2680500D02*
X3087000D01*
X3113000Y2699500D02*
X3125000D01*
X3113000Y2690000D02*
X3125000D01*
X3095000Y2670000D02*
X3105500Y2680500D01*
X3113000D02*
X3124500D01*
X3105500D02*
X3113000D01*
X3124500D02*
X3135000Y2670000D01*
X3071000Y2700500D02*
X3072000Y2699500D01*
X3087000D01*
X3097500Y2710000D01*
X3125000D01*
X3135000Y2700000D01*
X3071500Y2690000D02*
X3087000D01*
X3150000Y2635000D02*
Y2643500D01*
X3070500Y2700000D02*
X3071000Y2700500D01*
X3060000Y2688500D02*
X3070000D01*
X3071500Y2690000D01*
X427000Y3107500D02*
X510000D01*
X444500Y3075000D02*
X465000D01*
X480000Y3090000D01*
X427000Y3092500D02*
X444500Y3075000D01*
X335000Y3090000D02*
X352500Y3107500D01*
X373000D01*
X350000Y3130500D02*
X387000D01*
X413000Y3149500D02*
X425000D01*
X413000Y3140000D02*
X425000D01*
X395000Y3120000D02*
X405500Y3130500D01*
X413000D02*
X424500D01*
X405500D02*
X413000D01*
X424500D02*
X435000Y3120000D01*
X371000Y3150500D02*
X372000Y3149500D01*
X387000D01*
X397500Y3160000D01*
X425000D01*
X435000Y3150000D01*
X371500Y3140000D02*
X387000D01*
X450000Y3085000D02*
Y3093500D01*
X370500Y3150000D02*
X371000Y3150500D01*
X360000Y3138500D02*
X370000D01*
X371500Y3140000D01*
X877000Y3107500D02*
X960000D01*
X877000Y3092500D02*
X894500Y3075000D01*
X785000Y3090000D02*
X802500Y3107500D01*
X823000D01*
X800000Y3130500D02*
X837000D01*
X863000Y3149500D02*
X875000D01*
X863000Y3140000D02*
X875000D01*
X845000Y3120000D02*
X855500Y3130500D01*
X863000D02*
X874500D01*
X855500D02*
X863000D01*
X874500D02*
X885000Y3120000D01*
X821000Y3150500D02*
X822000Y3149500D01*
X837000D01*
X847500Y3160000D01*
X875000D01*
X885000Y3150000D01*
X821500Y3140000D02*
X837000D01*
X900000Y3085000D02*
Y3093500D01*
X820500Y3150000D02*
X821000Y3150500D01*
X810000Y3138500D02*
X820000D01*
X821500Y3140000D01*
X1327000Y3107500D02*
X1410000D01*
X1344500Y3075000D02*
X1365000D01*
X1380000Y3090000D01*
X1327000Y3092500D02*
X1344500Y3075000D01*
X1260000Y3092500D02*
X1273000D01*
X1235000Y3090000D02*
X1252500Y3107500D01*
X1273000D01*
X1250000Y3130500D02*
X1287000D01*
X1313000Y3149500D02*
X1325000D01*
X1313000Y3140000D02*
X1325000D01*
X1295000Y3120000D02*
X1305500Y3130500D01*
X1313000D02*
X1324500D01*
X1305500D02*
X1313000D01*
X1324500D02*
X1335000Y3120000D01*
X1271000Y3150500D02*
X1272000Y3149500D01*
X1287000D01*
X1297500Y3160000D01*
X1325000D01*
X1335000Y3150000D01*
X1271500Y3140000D02*
X1287000D01*
X1350000Y3085000D02*
Y3093500D01*
X1270500Y3150000D02*
X1271000Y3150500D01*
X1260000Y3138500D02*
X1270000D01*
X1271500Y3140000D01*
X1777000Y3107500D02*
X1860000D01*
X1794500Y3075000D02*
X1815000D01*
X1830000Y3090000D01*
X1777000Y3092500D02*
X1794500Y3075000D01*
X1710000Y3092500D02*
X1723000D01*
X1685000Y3090000D02*
X1702500Y3107500D01*
X1723000D01*
X1700000Y3130500D02*
X1737000D01*
X1763000Y3149500D02*
X1775000D01*
X1763000Y3140000D02*
X1775000D01*
X1745000Y3120000D02*
X1755500Y3130500D01*
X1763000D02*
X1774500D01*
X1755500D02*
X1763000D01*
X1774500D02*
X1785000Y3120000D01*
X1721000Y3150500D02*
X1722000Y3149500D01*
X1737000D01*
X1747500Y3160000D01*
X1775000D01*
X1785000Y3150000D01*
X1721500Y3140000D02*
X1737000D01*
X1800000Y3085000D02*
Y3093500D01*
X1720500Y3150000D02*
X1721000Y3150500D01*
X1710000Y3138500D02*
X1720000D01*
X1721500Y3140000D01*
X2227000Y3107500D02*
X2310000D01*
X2244500Y3075000D02*
X2265000D01*
X2280000Y3090000D01*
X2227000Y3092500D02*
X2244500Y3075000D01*
X2160000Y3092500D02*
X2173000D01*
X2135000Y3090000D02*
X2152500Y3107500D01*
X2173000D01*
X2150000Y3130500D02*
X2187000D01*
X2213000Y3149500D02*
X2225000D01*
X2213000Y3140000D02*
X2225000D01*
X2195000Y3120000D02*
X2205500Y3130500D01*
X2213000D01*
X2171000Y3150500D02*
X2172000Y3149500D01*
X2187000D01*
X2197500Y3160000D01*
X2225000D01*
X2235000Y3150000D01*
X2171500Y3140000D02*
X2187000D01*
X2250000Y3085000D02*
Y3093500D01*
X2170500Y3150000D02*
X2171000Y3150500D01*
X2160000Y3138500D02*
X2170000D01*
X2171500Y3140000D01*
X2677000Y3107500D02*
X2760000D01*
X2694500Y3075000D02*
X2715000D01*
X2730000Y3090000D01*
X2677000Y3092500D02*
X2694500Y3075000D01*
X2610000Y3092500D02*
X2623000D01*
X2585000Y3090000D02*
X2602500Y3107500D01*
X2623000D01*
X2600000Y3130500D02*
X2637000D01*
X2663000Y3149500D02*
X2675000D01*
X2663000Y3140000D02*
X2675000D01*
X2645000Y3120000D02*
X2655500Y3130500D01*
X2663000D02*
X2674500D01*
X2655500D02*
X2663000D01*
X2674500D02*
X2685000Y3120000D01*
X2621000Y3150500D02*
X2622000Y3149500D01*
X2637000D01*
X2647500Y3160000D01*
X2675000D01*
X2685000Y3150000D01*
X2621500Y3140000D02*
X2637000D01*
X2700000Y3085000D02*
Y3093500D01*
X2620500Y3150000D02*
X2621000Y3150500D01*
X2610000Y3138500D02*
X2620000D01*
X2621500Y3140000D01*
X3127000Y3107500D02*
X3210000D01*
X3144500Y3075000D02*
X3165000D01*
X3180000Y3090000D01*
X3127000Y3092500D02*
X3144500Y3075000D01*
X3060000Y3092500D02*
X3073000D01*
X3035000Y3090000D02*
X3052500Y3107500D01*
X3073000D01*
X3050000Y3130500D02*
X3087000D01*
X3113000Y3149500D02*
X3125000D01*
X3113000Y3140000D02*
X3125000D01*
X3095000Y3120000D02*
X3105500Y3130500D01*
X3113000D02*
X3124500D01*
X3105500D02*
X3113000D01*
X3124500D02*
X3135000Y3120000D01*
X3071000Y3150500D02*
X3072000Y3149500D01*
X3087000D01*
X3097500Y3160000D01*
X3125000D01*
X3135000Y3150000D01*
X3071500Y3140000D02*
X3087000D01*
X3150000Y3085000D02*
Y3093500D01*
X3070500Y3150000D02*
X3071000Y3150500D01*
X3060000Y3138500D02*
X3070000D01*
X3071500Y3140000D01*
X3577000Y3107500D02*
X3660000D01*
X3577000Y3092500D02*
X3594500Y3075000D01*
X3510000Y3092500D02*
X3523000D01*
X3485000Y3090000D02*
X3502500Y3107500D01*
X3523000D01*
X3500000Y3130500D02*
X3537000D01*
X3563000Y3149500D02*
X3575000D01*
X3563000Y3140000D02*
X3575000D01*
X3545000Y3120000D02*
X3555500Y3130500D01*
X3563000D01*
X3521000Y3150500D02*
X3522000Y3149500D01*
X3537000D01*
X3521500Y3140000D02*
X3537000D01*
X3600000Y3085000D02*
Y3093500D01*
X3520500Y3150000D02*
X3521000Y3150500D01*
X3510000Y3138500D02*
X3520000D01*
X3521500Y3140000D01*
X427000Y3557500D02*
X510000D01*
X444500Y3525000D02*
X465000D01*
X480000Y3540000D01*
X427000Y3542500D02*
X444500Y3525000D01*
X360000Y3542500D02*
X373000D01*
X352500Y3557500D02*
X373000D01*
X350000Y3580500D02*
X387000D01*
X413000Y3599500D02*
X425000D01*
X413000Y3590000D02*
X425000D01*
X413000Y3580500D02*
X424500D01*
X405500D02*
X413000D01*
X424500D02*
X435000Y3570000D01*
X371000Y3600500D02*
X372000Y3599500D01*
X387000D01*
X397500Y3610000D01*
X425000D01*
X435000Y3600000D01*
X371500Y3590000D02*
X387000D01*
X450000Y3535000D02*
Y3543500D01*
X370500Y3600000D02*
X371000Y3600500D01*
X360000Y3588500D02*
X370000D01*
X371500Y3590000D01*
X877000Y3557500D02*
X960000D01*
X894500Y3525000D02*
X915000D01*
X930000Y3540000D01*
X877000Y3542500D02*
X894500Y3525000D01*
X810000Y3542500D02*
X823000D01*
X785000Y3540000D02*
X802500Y3557500D01*
X823000D01*
X800000Y3580500D02*
X837000D01*
X863000Y3599500D02*
X875000D01*
X863000Y3590000D02*
X875000D01*
X845000Y3570000D02*
X855500Y3580500D01*
X863000D02*
X874500D01*
X855500D02*
X863000D01*
X874500D02*
X885000Y3570000D01*
X821000Y3600500D02*
X822000Y3599500D01*
X837000D01*
X847500Y3610000D01*
X875000D01*
X885000Y3600000D01*
X821500Y3590000D02*
X837000D01*
X900000Y3535000D02*
Y3543500D01*
X820500Y3600000D02*
X821000Y3600500D01*
X810000Y3588500D02*
X820000D01*
X821500Y3590000D01*
X1327000Y3557500D02*
X1410000D01*
X1344500Y3525000D02*
X1365000D01*
X1380000Y3540000D01*
X1327000Y3542500D02*
X1344500Y3525000D01*
X1260000Y3542500D02*
X1273000D01*
X1235000Y3540000D02*
X1252500Y3557500D01*
X1273000D01*
X1250000Y3580500D02*
X1287000D01*
X1313000Y3599500D02*
X1325000D01*
X1313000Y3590000D02*
X1325000D01*
X1295000Y3570000D02*
X1305500Y3580500D01*
X1313000D02*
X1324500D01*
X1305500D02*
X1313000D01*
X1324500D02*
X1335000Y3570000D01*
X1271000Y3600500D02*
X1272000Y3599500D01*
X1287000D01*
X1297500Y3610000D01*
X1325000D01*
X1335000Y3600000D01*
X1271500Y3590000D02*
X1287000D01*
X1350000Y3535000D02*
Y3543500D01*
X1270500Y3600000D02*
X1271000Y3600500D01*
X1260000Y3588500D02*
X1270000D01*
X1271500Y3590000D01*
X1777000Y3557500D02*
X1860000D01*
X1794500Y3525000D02*
X1815000D01*
X1830000Y3540000D01*
X1777000Y3542500D02*
X1794500Y3525000D01*
X1710000Y3542500D02*
X1723000D01*
X1685000Y3540000D02*
X1702500Y3557500D01*
X1723000D01*
X1700000Y3580500D02*
X1737000D01*
X1763000Y3599500D02*
X1775000D01*
X1763000Y3590000D02*
X1775000D01*
X1745000Y3570000D02*
X1755500Y3580500D01*
X1763000D02*
X1774500D01*
X1755500D02*
X1763000D01*
X1774500D02*
X1785000Y3570000D01*
X1721000Y3600500D02*
X1722000Y3599500D01*
X1737000D01*
X1747500Y3610000D01*
X1775000D01*
X1785000Y3600000D01*
X1721500Y3590000D02*
X1737000D01*
X1800000Y3535000D02*
Y3543500D01*
X1720500Y3600000D02*
X1721000Y3600500D01*
X1710000Y3588500D02*
X1720000D01*
X1721500Y3590000D01*
X2227000Y3557500D02*
X2310000D01*
X2244500Y3525000D02*
X2265000D01*
X2280000Y3540000D01*
X2227000Y3542500D02*
X2244500Y3525000D01*
X2160000Y3542500D02*
X2173000D01*
X2135000Y3540000D02*
X2152500Y3557500D01*
X2173000D01*
X2150000Y3580500D02*
X2187000D01*
X2213000Y3599500D02*
X2225000D01*
X2213000Y3590000D02*
X2225000D01*
X2100000Y3570000D02*
X2195000D01*
X2205500Y3580500D01*
X2213000D02*
X2224500D01*
X2205500D02*
X2213000D01*
X2224500D02*
X2235000Y3570000D01*
X2171000Y3600500D02*
X2172000Y3599500D01*
X2187000D01*
X2197500Y3610000D01*
X2225000D01*
X2235000Y3600000D01*
X2171500Y3590000D02*
X2187000D01*
X2250000Y3535000D02*
Y3543500D01*
X2170500Y3600000D02*
X2171000Y3600500D01*
X2160000Y3588500D02*
X2170000D01*
X2171500Y3590000D01*
X2677000Y3557500D02*
X2760000D01*
X2694500Y3525000D02*
X2715000D01*
X2730000Y3540000D01*
X2677000Y3542500D02*
X2694500Y3525000D01*
X2610000Y3542500D02*
X2623000D01*
X2585000Y3540000D02*
X2602500Y3557500D01*
X2623000D01*
X2600000Y3580500D02*
X2637000D01*
X2663000Y3599500D02*
X2675000D01*
X2663000Y3590000D02*
X2675000D01*
X2645000Y3570000D02*
X2655500Y3580500D01*
X2663000D02*
X2674500D01*
X2655500D02*
X2663000D01*
X2674500D02*
X2685000Y3570000D01*
X2621000Y3600500D02*
X2622000Y3599500D01*
X2637000D01*
X2647500Y3610000D01*
X2675000D01*
X2685000Y3600000D01*
X2621500Y3590000D02*
X2637000D01*
X2700000Y3535000D02*
Y3543500D01*
X2620500Y3600000D02*
X2621000Y3600500D01*
X2610000Y3588500D02*
X2620000D01*
X2621500Y3590000D01*
X3127000Y3557500D02*
X3210000D01*
X3144500Y3525000D02*
X3165000D01*
X3180000Y3540000D01*
X3127000Y3542500D02*
X3144500Y3525000D01*
X3060000Y3542500D02*
X3073000D01*
X3035000Y3540000D02*
X3052500Y3557500D01*
X3073000D01*
X3050000Y3580500D02*
X3087000D01*
X3113000Y3599500D02*
X3125000D01*
X3113000Y3590000D02*
X3125000D01*
X3095000Y3570000D02*
X3105500Y3580500D01*
X3113000D02*
X3124500D01*
X3105500D02*
X3113000D01*
X3124500D02*
X3135000Y3570000D01*
X3071000Y3600500D02*
X3072000Y3599500D01*
X3087000D01*
X3097500Y3610000D01*
X3125000D01*
X3135000Y3600000D01*
X3071500Y3590000D02*
X3087000D01*
X3150000Y3535000D02*
Y3543500D01*
X3070500Y3600000D02*
X3071000Y3600500D01*
X3060000Y3588500D02*
X3070000D01*
X3071500Y3590000D01*
X3577000Y3557500D02*
X3660000D01*
X3510000Y3542500D02*
X3523000D01*
X3485000Y3540000D02*
X3502500Y3557500D01*
X3523000D01*
X3500000Y3580500D02*
X3537000D01*
X3563000Y3599500D02*
X3575000D01*
X3563000Y3590000D02*
X3575000D01*
X3545000Y3570000D02*
X3555500Y3580500D01*
X3563000D01*
X3521000Y3600500D02*
X3522000Y3599500D01*
X3537000D01*
X3521500Y3590000D02*
X3537000D01*
X3600000Y3535000D02*
Y3543500D01*
X3520500Y3600000D02*
X3521000Y3600500D01*
X3510000Y3588500D02*
X3520000D01*
X3521500Y3590000D01*
X3577000Y2657500D02*
X3660000D01*
X3577000Y2642500D02*
X3594500Y2625000D01*
X3510000Y2642500D02*
X3523000D01*
X3485000Y2640000D02*
X3502500Y2657500D01*
X3523000D01*
X3500000Y2680500D02*
X3537000D01*
X3563000Y2699500D02*
X3575000D01*
X3563000Y2690000D02*
X3575000D01*
X3545000Y2670000D02*
X3555500Y2680500D01*
X3563000D01*
X3521000Y2700500D02*
X3522000Y2699500D01*
X3537000D01*
X3521500Y2690000D02*
X3537000D01*
X3600000Y2635000D02*
Y2643500D01*
X3520500Y2700000D02*
X3521000Y2700500D01*
X3510000Y2688500D02*
X3520000D01*
X3521500Y2690000D01*
X320000Y400000D02*
X340000Y420000D01*
X395000D01*
X290000Y450000D02*
X370500D01*
X350000Y350000D02*
Y390000D01*
X800000D02*
X845000Y345000D01*
X1250000Y390000D02*
X1305000Y335000D01*
X1700000Y345000D02*
Y390000D01*
X1700000Y390000D02*
X1700000Y390000D01*
X2105000Y344454D02*
X2150000Y389454D01*
Y390000D01*
X2540000Y330000D02*
X2600000Y390000D01*
Y390000D01*
X2975000Y315000D02*
X3050000Y390000D01*
X1850000Y300000D02*
X3410000D01*
X3500000Y390000D01*
X435000Y450000D02*
X820500D01*
X760000Y420000D02*
X760000Y420000D01*
X845000D01*
X435000Y420000D02*
X760000D01*
X480000Y390000D02*
X785000D01*
X885000Y450000D02*
X1270500D01*
X1324500Y430500D02*
X1335000Y420000D01*
X1313000Y430500D02*
X1324500D01*
X1200000Y420000D02*
X1295000D01*
X1200000Y420000D02*
X1200000Y420000D01*
X885000Y420000D02*
X1200000D01*
X930000Y390000D02*
X1235000D01*
X1380000D02*
X1685000D01*
X1335000Y420000D02*
X1650000D01*
X1650000Y420000D01*
X1335000Y450000D02*
X1720500D01*
X1785000D02*
X2170500D01*
X2120000Y420000D02*
X2120000Y420000D01*
X1785000Y420000D02*
X2120000D01*
X2120000Y420000D02*
X2195000D01*
X1830000Y390000D02*
X2135000D01*
X2235000Y450000D02*
X2620500D01*
X2570000Y420000D02*
X2570000Y420000D01*
X2645000D01*
X2280000Y390000D02*
X2585000D01*
X2685000Y450000D02*
X3070500D01*
X3010000Y420000D02*
X3010000Y420000D01*
X3095000D01*
X2685000Y420000D02*
X3010000D01*
X2730000Y390000D02*
X3035000D01*
X3180000D02*
X3485000D01*
X3460000Y420000D02*
X3460000Y420000D01*
X3545000D01*
X3135000Y450000D02*
X3520500D01*
X3594500Y375000D02*
X3645000D01*
X3670000Y400000D01*
Y420000D01*
X3620000Y470000D02*
X3670000Y420000D01*
X345000Y470000D02*
X3620000D01*
X335000Y480000D02*
Y840000D01*
X280000Y345000D02*
Y805000D01*
X345000Y870000D01*
X395000D01*
X290000Y900000D02*
X370500D01*
X290000Y900000D02*
X290000Y900000D01*
X350000Y480000D02*
Y840000D01*
X810000Y842500D02*
X823000D01*
X1235000Y840000D02*
X1252500Y857500D01*
X1273000D01*
X1700000Y480000D02*
Y840000D01*
X3050000Y480000D02*
Y840000D01*
X480000D02*
X785000D01*
X750000Y870000D02*
X750000Y870000D01*
X930000Y840000D02*
X1235000D01*
X885000Y900000D02*
X1270500D01*
X1380000Y840000D02*
X1685000D01*
X1335000Y900000D02*
X1720500D01*
X1830000Y840000D02*
X2135000D01*
X1785000Y900000D02*
X2170500D01*
X2280000Y840000D02*
X2585000D01*
X2235000Y900000D02*
X2620500D01*
X2730000Y840000D02*
X3035000D01*
X2685000Y900000D02*
X3070500D01*
X3180000Y840000D02*
X3485000D01*
X3135000Y900000D02*
X3520500D01*
X480000Y1290000D02*
X785000D01*
X700000Y1320000D02*
X845000D01*
X700000Y1320000D02*
X700000Y1320000D01*
X930000Y1290000D02*
X1235000D01*
X1150000Y1320000D02*
X1295000D01*
X1150000Y1320000D02*
X1150000Y1320000D01*
X885000Y1350000D02*
X1270500D01*
X1335000D02*
X1720500D01*
X1600000Y1320000D02*
X1600000Y1320000D01*
X1745000D01*
X1380000Y1290000D02*
X1685000D01*
X1830000D02*
X2135000D01*
X2030000Y1320000D02*
X2030000Y1320000D01*
X2195000D01*
X1785000Y1320000D02*
X2030000D01*
X1785000Y1350000D02*
X2170500D01*
X2235000D02*
X2620500D01*
X2500000Y1320000D02*
X2500000Y1320000D01*
X2645000D01*
X2280000Y1290000D02*
X2585000D01*
X2730000D02*
X3035000D01*
X2930000Y1320000D02*
X2930000Y1320000D01*
X3095000D01*
X2685000Y1320000D02*
X2930000D01*
X2685000Y1350000D02*
X3070500D01*
X3180000Y1290000D02*
X3485000D01*
X3380000Y1320000D02*
X3380000Y1320000D01*
X3545000D01*
X3135000Y1320000D02*
X3380000D01*
X3135000Y1350000D02*
X3520500D01*
X3594500Y825000D02*
X3645000D01*
X3670000Y850000D02*
Y870000D01*
X1755500Y880500D02*
X1763000D01*
X874500D02*
X885000Y870000D01*
X1200000D01*
X1200000Y870000D01*
X1324500Y880500D02*
X1335000Y870000D01*
X1600000D01*
X1600000Y870000D01*
X1774500Y880500D02*
X1785000Y870000D01*
X2100000D01*
X2100000Y870000D01*
X2224500Y880500D02*
X2235000Y870000D01*
X2550000D01*
X2550000Y870000D01*
X2674500Y880500D02*
X2685000Y870000D01*
X2950000D01*
X2950000Y870000D01*
X3095000D01*
X3105500Y880500D01*
X2550000Y870000D02*
X2645000D01*
X2655500Y880500D01*
X2100000Y870000D02*
X2195000D01*
X2205500Y880500D01*
X1600000Y870000D02*
X1745000D01*
X1755500Y880500D01*
X1200000Y870000D02*
X1295000D01*
X1305500Y880500D01*
X3645000Y825000D02*
X3670000Y850000D01*
X3124500Y880500D02*
X3135000Y870000D01*
X3400000D01*
X3400000Y870000D01*
X3545000D01*
X3555500Y880500D01*
X3620000Y920000D02*
X3670000Y870000D01*
X350000Y930000D02*
Y1290000D01*
X800000Y930000D02*
Y1290000D01*
X1700000Y930000D02*
Y1290000D01*
X2600000Y930000D02*
Y1290000D01*
X350000Y1380000D02*
Y1740000D01*
X480000D02*
X785000D01*
X750000Y1770000D02*
X750000Y1770000D01*
X930000Y1740000D02*
X1235000D01*
X1150000Y1770000D02*
X1295000D01*
X1150000Y1770000D02*
X1150000Y1770000D01*
X885000Y1800000D02*
X1270500D01*
X1380000Y1740000D02*
X1685000D01*
X1335000Y1770000D02*
X1650000D01*
X1650000Y1770000D01*
X1335000Y1800000D02*
X1720500D01*
X2150000Y1380000D02*
Y1740000D01*
X1830000D02*
X2135000D01*
X2100000Y1770000D02*
X2100000Y1770000D01*
X1785000Y1800000D02*
X2170500D01*
X2600000Y1380000D02*
Y1740000D01*
X2280000D02*
X2585000D01*
X2500000Y1770000D02*
X2645000D01*
X2500000Y1770000D02*
X2500000Y1770000D01*
X2235000Y1800000D02*
X2620500D01*
X3050000Y1380000D02*
Y1740000D01*
X2730000D02*
X3035000D01*
X3000000Y1770000D02*
X3000000Y1770000D01*
X2685000Y1800000D02*
X3070500D01*
X3500000Y1380000D02*
Y1740000D01*
X3180000D02*
X3485000D01*
X3450000Y1770000D02*
X3450000Y1770000D01*
X3135000Y1800000D02*
X3520500D01*
X372000Y1349500D02*
X387000D01*
X370500Y1350000D02*
X371000Y1350500D01*
X372000Y1349500D01*
X397500Y1360000D02*
X425000D01*
X1775000D02*
X1785000Y1350000D01*
X425000Y1360000D02*
X435000Y1350000D01*
X822000Y1349500D02*
X837000D01*
X435000Y1350000D02*
X820500D01*
X821000Y1350500D01*
X822000Y1349500D01*
X265000Y335000D02*
Y1240000D01*
X345000Y1320000D02*
X395000D01*
X265000Y1240000D02*
X345000Y1320000D01*
X250000Y1675000D02*
X345000Y1770000D01*
X250000Y325000D02*
Y1675000D01*
X345000Y1770000D02*
X395000D01*
X235000Y2110000D02*
X345000Y2220000D01*
X395000D01*
X235000Y315000D02*
Y2110000D01*
X290000Y1800000D02*
X370500D01*
X290000Y1800000D02*
X290000Y1800000D01*
X290000Y1350000D02*
X290000Y1350000D01*
X370500D01*
X290000Y2700000D02*
X310000D01*
X310000Y2700000D01*
X370500D01*
X290000Y3150000D02*
X305000D01*
X305000Y3150000D01*
X370500D01*
X290000Y3600000D02*
X310000D01*
X310000Y3600000D01*
X370500D01*
X3594500Y1275000D02*
X3645000D01*
X3670000Y1300000D02*
Y1320000D01*
X3620000Y1370000D02*
X3670000Y1320000D01*
X3645000Y1275000D02*
X3670000Y1300000D01*
X435000Y2250000D02*
X820500D01*
X680000Y2220000D02*
X680000Y2220000D01*
X845000D01*
X435000Y2220000D02*
X680000D01*
X1250000Y1830000D02*
Y2190000D01*
X1120000Y2220000D02*
X1120000Y2220000D01*
X1295000D01*
X885000Y2220000D02*
X1120000D01*
X885000Y2250000D02*
X1270500D01*
X1700000Y1830000D02*
Y2190000D01*
X1380000D02*
X1685000D01*
X1660000Y2220000D02*
X1660000Y2220000D01*
X1335000Y2220000D02*
X1660000D01*
X1660000Y2220000D02*
X1745000D01*
X1335000Y2250000D02*
X1720500D01*
X2280000Y2190000D02*
X2585000D01*
X2490000Y2220000D02*
X2490000Y2220000D01*
X2645000D01*
X2235000Y2220000D02*
X2490000D01*
X2150000Y1830000D02*
Y2190000D01*
X2600000Y1830000D02*
Y2190000D01*
X2730000D02*
X3035000D01*
X2930000Y2220000D02*
X2930000Y2220000D01*
X3095000D01*
X2685000Y2220000D02*
X2930000D01*
X2685000Y2250000D02*
X3070500D01*
X3050000Y1830000D02*
Y2190000D01*
X3180000D02*
X3485000D01*
X3390000Y2220000D02*
X3390000Y2220000D01*
X3545000D01*
X3135000Y2220000D02*
X3390000D01*
X3135000Y2250000D02*
X3520500D01*
X3500000Y1830000D02*
Y2190000D01*
Y2280000D02*
Y2640000D01*
X3180000D02*
X3485000D01*
X3390000Y2670000D02*
X3390000Y2670000D01*
X3135000Y2670000D02*
X3390000D01*
X3390000Y2670000D02*
X3545000D01*
X3135000Y2700000D02*
X3520500D01*
X3050000Y2280000D02*
Y2640000D01*
X2600000Y2280000D02*
Y2640000D01*
X2730000D02*
X3035000D01*
X2940000Y2670000D02*
X2940000Y2670000D01*
X3095000D01*
X2685000Y2670000D02*
X2940000D01*
X2685000Y2700000D02*
X3070500D01*
X2235000D02*
X2620500D01*
X2490000Y2670000D02*
X2490000Y2670000D01*
X2645000D01*
X2235000Y2670000D02*
X2490000D01*
X2150000Y2280000D02*
Y2640000D01*
X1830000D02*
X2135000D01*
X2120000Y2670000D02*
X2120000Y2670000D01*
X2195000D01*
X1785000Y2670000D02*
X2120000D01*
X1785000Y2700000D02*
X2170500D01*
X1700000Y2280000D02*
Y2640000D01*
X1380000D02*
X1685000D01*
X1590000Y2670000D02*
X1590000Y2670000D01*
X1745000D01*
X1335000Y2670000D02*
X1590000D01*
X1335000Y2700000D02*
X1720500D01*
X1250000Y2280000D02*
Y2640000D01*
X800000Y2280000D02*
Y2640000D01*
X480000D02*
X785000D01*
X680000Y2670000D02*
X680000Y2670000D01*
X845000D01*
X435000Y2670000D02*
X680000D01*
X435000Y2700000D02*
X820500D01*
X885000D02*
X1270500D01*
X1120000Y2670000D02*
X1120000Y2670000D01*
X1295000D01*
X885000Y2670000D02*
X1120000D01*
X930000Y2640000D02*
X1235000D01*
X350000Y2730000D02*
Y3090000D01*
X480000D02*
X785000D01*
X690000Y3120000D02*
X690000Y3120000D01*
X845000D01*
X435000Y3120000D02*
X690000D01*
X435000Y3150000D02*
X820500D01*
X800000Y2730000D02*
Y3090000D01*
X1250000Y2730000D02*
Y3090000D01*
X1210000Y3120000D02*
X1210000Y3120000D01*
X885000Y3120000D02*
X1210000D01*
X1210000Y3120000D02*
X1295000D01*
X885000Y3150000D02*
X1270500D01*
X1335000D02*
X1720500D01*
X1580000Y3120000D02*
X1580000Y3120000D01*
X1745000D01*
X1335000Y3120000D02*
X1580000D01*
X1380000Y3090000D02*
X1685000D01*
X1700000Y2730000D02*
Y3090000D01*
X2150000Y2730000D02*
Y3090000D01*
X1830000D02*
X2135000D01*
X2224500Y3130500D02*
X2235000Y3120000D01*
X2213000Y3130500D02*
X2224500D01*
X2110000Y3120000D02*
X2110000Y3120000D01*
X1785000Y3120000D02*
X2110000D01*
X2110000Y3120000D02*
X2195000D01*
X1785000Y3150000D02*
X2170500D01*
X2235000D02*
X2620500D01*
X2450000Y3120000D02*
X2450000Y3120000D01*
X2645000D01*
X2235000Y3120000D02*
X2450000D01*
X2280000Y3090000D02*
X2585000D01*
X2600000Y2730000D02*
Y3090000D01*
X2730000D02*
X3035000D01*
X2940000Y3120000D02*
X2940000Y3120000D01*
X3095000D01*
X2685000Y3120000D02*
X2940000D01*
X2685000Y3150000D02*
X3070500D01*
X3050000Y2730000D02*
Y3090000D01*
X3180000D02*
X3485000D01*
X3390000Y3120000D02*
X3390000Y3120000D01*
X3135000Y3120000D02*
X3390000D01*
X3390000Y3120000D02*
X3545000D01*
X3135000Y3150000D02*
X3520500D01*
X3500000Y2730000D02*
Y3090000D01*
X350000Y3180000D02*
Y3540000D01*
X480000D02*
X785000D01*
X680000Y3570000D02*
X680000Y3570000D01*
X845000D01*
X435000Y3570000D02*
X680000D01*
X435000Y3600000D02*
X820500D01*
X800000Y3180000D02*
Y3540000D01*
X930000D02*
X1235000D01*
X1130000Y3570000D02*
X1130000Y3570000D01*
X885000Y3570000D02*
X1130000D01*
X1130000Y3570000D02*
X1295000D01*
X885000Y3600000D02*
X1270500D01*
X1250000Y3180000D02*
Y3540000D01*
X1700000Y3180000D02*
Y3540000D01*
X1335000Y3600000D02*
X1720500D01*
X1590000Y3570000D02*
X1590000Y3570000D01*
X1745000D01*
X1335000Y3570000D02*
X1590000D01*
X1380000Y3540000D02*
X1685000D01*
X2150000Y3180000D02*
Y3540000D01*
X1830000D02*
X2135000D01*
X2100000Y3570000D02*
X2100000Y3570000D01*
X1785000Y3570000D02*
X2100000D01*
X1785000Y3600000D02*
X2170500D01*
X2280000Y3540000D02*
X2585000D01*
X2490000Y3570000D02*
X2490000Y3570000D01*
X2645000D01*
X2235000Y3570000D02*
X2490000D01*
X2235000Y3600000D02*
X2620500D01*
X2600000Y3180000D02*
Y3540000D01*
X2730000D02*
X3035000D01*
X2940000Y3570000D02*
X2940000Y3570000D01*
X3095000D01*
X2685000Y3570000D02*
X2940000D01*
X2685000Y3600000D02*
X3070500D01*
X3050000Y3180000D02*
Y3540000D01*
X3180000D02*
X3485000D01*
X3380000Y3570000D02*
X3380000Y3570000D01*
X3135000Y3570000D02*
X3380000D01*
X3380000Y3570000D02*
X3545000D01*
X3135000Y3600000D02*
X3520500D01*
X3500000Y3180000D02*
Y3540000D01*
X3594500Y1725000D02*
X3645000D01*
X3670000Y1750000D02*
Y1770000D01*
X3620000Y1820000D02*
X3670000Y1770000D01*
X3645000Y1725000D02*
X3670000Y1750000D01*
X3594500Y2175000D02*
X3645000D01*
X3670000Y2200000D02*
Y2220000D01*
X3620000Y2270000D02*
X3670000Y2220000D01*
X3645000Y2175000D02*
X3670000Y2200000D01*
Y2650000D02*
Y2670000D01*
X3620000Y2720000D02*
X3670000Y2670000D01*
X345000Y2720000D02*
X3620000D01*
X3594500Y2625000D02*
X3645000D01*
X3670000Y2650000D01*
Y3100000D02*
Y3120000D01*
X3620000Y3170000D02*
X3670000Y3120000D01*
X3594500Y3075000D02*
X3645000D01*
X3670000Y3100000D01*
X2197500Y2260000D02*
X2225000D01*
X2235000Y2250000D02*
X2620500D01*
X2225000Y2260000D02*
X2235000Y2250000D01*
X290000Y2250000D02*
X305000D01*
X305000Y2250000D01*
X372000Y2249500D02*
X387000D01*
X305000Y2250000D02*
X370500D01*
X371000Y2250500D01*
X372000Y2249500D01*
X352500Y2657500D02*
X373000D01*
X335000Y2640000D02*
X352500Y2657500D01*
X350000Y2280000D02*
Y2640000D01*
X2244500Y2625000D02*
X2265000D01*
X2280000Y2640000D02*
X2585000D01*
X2265000Y2625000D02*
X2280000Y2640000D01*
X2160000Y2642500D02*
X2173000D01*
X802500Y2207500D02*
X823000D01*
X480000Y2190000D02*
X785000D01*
X802500Y2207500D01*
X800000Y1830000D02*
Y2190000D01*
X894500Y2175000D02*
X915000D01*
X930000Y2190000D02*
X1235000D01*
X915000Y2175000D02*
X930000Y2190000D01*
X350000Y1830000D02*
Y2190000D01*
X335000D02*
X352500Y2207500D01*
X335000Y1290000D02*
X352500Y1307500D01*
X345000Y920000D02*
X3620000D01*
X335000Y930000D02*
X345000Y920000D01*
X335000Y930000D02*
Y1290000D01*
Y1740000D02*
X352500Y1757500D01*
X335000Y1380000D02*
X345000Y1370000D01*
X3620000D01*
X335000Y1380000D02*
Y1740000D01*
Y1830000D02*
Y2190000D01*
X345000Y1820000D02*
X3620000D01*
X335000Y1830000D02*
X345000Y1820000D01*
X345000Y2270000D02*
X3620000D01*
X335000Y2280000D02*
X345000Y2270000D01*
X335000Y2280000D02*
Y2640000D01*
X894500Y3075000D02*
X915000D01*
X930000Y3090000D02*
X1235000D01*
X915000Y3075000D02*
X930000Y3090000D01*
X810000Y3092500D02*
X823000D01*
X360000D02*
X373000D01*
X335000Y2730000D02*
X345000Y2720000D01*
X335000Y2730000D02*
Y3090000D01*
Y3180000D02*
X345000Y3170000D01*
X395000Y3570000D02*
X405500Y3580500D01*
X335000Y3180000D02*
Y3540000D01*
X352500Y3557500D01*
X345000Y3170000D02*
X3620000D01*
X220000Y305000D02*
Y2545000D01*
X345000Y2670000D01*
X395000D01*
X205000Y295000D02*
Y2980000D01*
X345000Y3120000D01*
X395000D01*
X190000Y285000D02*
Y3415000D01*
X345000Y3570000D01*
X395000D01*
X2050000Y2250000D02*
X2170500D01*
X2050000Y2220000D02*
X2050000Y2220000D01*
X2195000D01*
X1830000Y2190000D02*
X2135000D01*
D40*
X1406000Y83500D02*
X1412500Y90000D01*
X1419000D01*
X1951500Y66251D02*
Y75000D01*
X2007000Y66251D02*
Y75000D01*
X1999000Y66251D02*
Y75000D01*
X1943000Y66251D02*
Y75000D01*
Y55000D02*
Y66251D01*
X1951500Y55000D02*
Y66251D01*
X1999000Y55000D02*
Y66251D01*
X2007000Y55000D02*
Y66251D01*
X1453500Y96500D02*
X1460000D01*
X1470000D01*
X1441000Y99500D02*
X1450500D01*
X1453500Y96500D01*
X1400000Y83500D02*
X1406000D01*
X1400000Y75000D02*
X1400000Y75000D01*
X1400000Y75000D02*
Y83500D01*
D41*
X1655000Y140000D02*
X1655000Y140000D01*
Y155000D02*
X1663500D01*
X1655000Y140000D02*
X1663500D01*
X1655000Y155000D02*
X1655000Y155000D01*
Y125000D02*
X1663500D01*
X1655000Y125000D02*
X1655000Y125000D01*
X1655000Y200000D02*
X1655000Y200000D01*
X1663500D01*
X1655000Y170000D02*
X1663500D01*
X1655000Y185000D02*
X1655000Y185000D01*
X1663500D01*
X1655000Y215000D02*
X1663500D01*
X1655000Y230000D02*
X1655000Y230000D01*
X1655000Y215000D02*
X1655000Y215000D01*
Y230000D02*
X1663500D01*
D42*
X2018200Y21251D02*
D03*
X1931800D02*
D03*
D43*
X2018200Y61251D02*
D03*
X1931800D02*
D03*
D44*
X3800000Y150000D02*
D03*
Y3800000D02*
D03*
X150000D02*
D03*
Y150000D02*
D03*
D45*
X1920000Y85000D02*
D03*
X2010000D02*
D03*
X2060000Y60000D02*
D03*
X2060000Y45000D02*
D03*
Y30000D02*
D03*
Y15000D02*
D03*
X2007000Y75000D02*
D03*
X1999000D02*
D03*
X1943000D02*
D03*
X1951500D02*
D03*
X1950000Y85000D02*
D03*
X1520000Y230000D02*
D03*
X1510000Y275000D02*
D03*
X1580000Y230000D02*
D03*
X1400000Y105000D02*
D03*
X1649250Y81650D02*
D03*
X1450500Y80500D02*
D03*
X1522500Y105000D02*
D03*
X1557500D02*
D03*
X1550000Y80000D02*
D03*
X1530000D02*
D03*
X1660000Y60000D02*
D03*
X1621350Y90000D02*
D03*
X1655000Y185000D02*
D03*
Y200000D02*
D03*
Y215000D02*
D03*
X1655000Y125000D02*
D03*
X1655000Y140000D02*
D03*
X1595000Y122500D02*
D03*
Y137500D02*
D03*
X1655000Y230000D02*
D03*
X1480000Y147500D02*
D03*
X1505000Y142500D02*
D03*
X1655000Y170000D02*
D03*
X1655000Y155000D02*
D03*
X1943000Y55000D02*
D03*
X1951500D02*
D03*
X1999000D02*
D03*
X2007000D02*
D03*
X1470500Y285000D02*
D03*
X1470000Y96500D02*
D03*
X1400000Y75000D02*
D03*
X1547500Y195000D02*
D03*
X290000Y450000D02*
D03*
Y900000D02*
D03*
Y1350000D02*
D03*
Y1800000D02*
D03*
Y2250000D02*
D03*
Y2700000D02*
D03*
Y3150000D02*
D03*
Y3600000D02*
D03*
X1620000Y117500D02*
D03*
X1582500D02*
D03*
X1680000Y30000D02*
D03*
X1105000Y110000D02*
D03*
X831250D02*
D03*
X875000D02*
D03*
X810000Y438500D02*
D03*
X900000Y385000D02*
D03*
X875000Y440000D02*
D03*
Y449500D02*
D03*
X800000Y430500D02*
D03*
Y390000D02*
D03*
Y480000D02*
D03*
X810000Y392500D02*
D03*
X960000Y407500D02*
D03*
X510000D02*
D03*
X360000Y392500D02*
D03*
X350000Y480000D02*
D03*
Y390000D02*
D03*
Y430500D02*
D03*
X425000Y449500D02*
D03*
Y440000D02*
D03*
X450000Y385000D02*
D03*
X360000Y438500D02*
D03*
X1410000Y407500D02*
D03*
X1260000Y392500D02*
D03*
X1250000Y480000D02*
D03*
Y390000D02*
D03*
Y430500D02*
D03*
X1325000Y449500D02*
D03*
Y440000D02*
D03*
X1350000Y385000D02*
D03*
X1260000Y438500D02*
D03*
X1860000Y407500D02*
D03*
X1710000Y392500D02*
D03*
X1700000Y480000D02*
D03*
Y390000D02*
D03*
Y430500D02*
D03*
X1775000Y449500D02*
D03*
Y440000D02*
D03*
X1800000Y385000D02*
D03*
X1710000Y438500D02*
D03*
X2310000Y407500D02*
D03*
X2160000Y392500D02*
D03*
X2150000Y480000D02*
D03*
Y390000D02*
D03*
Y430500D02*
D03*
X2225000Y449500D02*
D03*
Y440000D02*
D03*
X2250000Y385000D02*
D03*
X2160000Y438500D02*
D03*
X2760000Y407500D02*
D03*
X2610000Y392500D02*
D03*
X2600000Y480000D02*
D03*
Y390000D02*
D03*
Y430500D02*
D03*
X2675000Y449500D02*
D03*
Y440000D02*
D03*
X2700000Y385000D02*
D03*
X2610000Y438500D02*
D03*
X3210000Y407500D02*
D03*
X3060000Y392500D02*
D03*
X3050000Y480000D02*
D03*
Y390000D02*
D03*
Y430500D02*
D03*
X3125000Y449500D02*
D03*
Y440000D02*
D03*
X3150000Y385000D02*
D03*
X3060000Y438500D02*
D03*
X3660000Y407500D02*
D03*
X3510000Y392500D02*
D03*
X3500000Y480000D02*
D03*
Y390000D02*
D03*
Y430500D02*
D03*
X3575000Y449500D02*
D03*
Y440000D02*
D03*
X3600000Y385000D02*
D03*
X3510000Y438500D02*
D03*
X510000Y857500D02*
D03*
X360000Y842500D02*
D03*
X350000Y930000D02*
D03*
Y840000D02*
D03*
Y880500D02*
D03*
X425000Y899500D02*
D03*
Y890000D02*
D03*
X450000Y835000D02*
D03*
X360000Y888500D02*
D03*
X960000Y857500D02*
D03*
X800000Y930000D02*
D03*
Y840000D02*
D03*
Y880500D02*
D03*
X875000Y899500D02*
D03*
Y890000D02*
D03*
X900000Y835000D02*
D03*
X810000Y888500D02*
D03*
X1410000Y857500D02*
D03*
X1260000Y842500D02*
D03*
X1250000Y930000D02*
D03*
Y840000D02*
D03*
Y880500D02*
D03*
X1325000Y899500D02*
D03*
Y890000D02*
D03*
X1350000Y835000D02*
D03*
X1260000Y888500D02*
D03*
X1860000Y857500D02*
D03*
X1710000Y842500D02*
D03*
X1700000Y930000D02*
D03*
Y840000D02*
D03*
Y880500D02*
D03*
X1775000Y899500D02*
D03*
Y890000D02*
D03*
X1800000Y835000D02*
D03*
X1710000Y888500D02*
D03*
X2310000Y857500D02*
D03*
X2160000Y842500D02*
D03*
X2150000Y930000D02*
D03*
Y840000D02*
D03*
Y880500D02*
D03*
X2225000Y899500D02*
D03*
Y890000D02*
D03*
X2250000Y835000D02*
D03*
X2160000Y888500D02*
D03*
X2760000Y857500D02*
D03*
X2610000Y842500D02*
D03*
X2600000Y930000D02*
D03*
Y840000D02*
D03*
Y880500D02*
D03*
X2675000Y899500D02*
D03*
Y890000D02*
D03*
X2700000Y835000D02*
D03*
X2610000Y888500D02*
D03*
X3210000Y857500D02*
D03*
X3060000Y842500D02*
D03*
X3050000Y930000D02*
D03*
Y840000D02*
D03*
Y880500D02*
D03*
X3125000Y899500D02*
D03*
Y890000D02*
D03*
X3150000Y835000D02*
D03*
X3060000Y888500D02*
D03*
X3660000Y857500D02*
D03*
X3510000Y842500D02*
D03*
X3500000Y930000D02*
D03*
Y840000D02*
D03*
Y880500D02*
D03*
X3575000Y899500D02*
D03*
Y890000D02*
D03*
X3600000Y835000D02*
D03*
X3510000Y888500D02*
D03*
X510000Y1307500D02*
D03*
X360000Y1292500D02*
D03*
X350000Y1380000D02*
D03*
Y1290000D02*
D03*
Y1330500D02*
D03*
X425000Y1349500D02*
D03*
Y1340000D02*
D03*
X450000Y1285000D02*
D03*
X360000Y1338500D02*
D03*
X960000Y1307500D02*
D03*
X810000Y1292500D02*
D03*
X800000Y1380000D02*
D03*
Y1290000D02*
D03*
Y1330500D02*
D03*
X875000Y1349500D02*
D03*
Y1340000D02*
D03*
X900000Y1285000D02*
D03*
X810000Y1338500D02*
D03*
X1410000Y1307500D02*
D03*
X1260000Y1292500D02*
D03*
X1250000Y1380000D02*
D03*
Y1290000D02*
D03*
Y1330500D02*
D03*
X1325000Y1349500D02*
D03*
Y1340000D02*
D03*
X1350000Y1285000D02*
D03*
X1260000Y1338500D02*
D03*
X1860000Y1307500D02*
D03*
X1710000Y1292500D02*
D03*
X1700000Y1380000D02*
D03*
Y1290000D02*
D03*
Y1330500D02*
D03*
X1775000Y1349500D02*
D03*
Y1340000D02*
D03*
X1800000Y1285000D02*
D03*
X1710000Y1338500D02*
D03*
X2310000Y1307500D02*
D03*
X2160000Y1292500D02*
D03*
X2150000Y1380000D02*
D03*
Y1290000D02*
D03*
Y1330500D02*
D03*
X2225000Y1349500D02*
D03*
Y1340000D02*
D03*
X2250000Y1285000D02*
D03*
X2160000Y1338500D02*
D03*
X2760000Y1307500D02*
D03*
X2610000Y1292500D02*
D03*
X2600000Y1380000D02*
D03*
Y1290000D02*
D03*
Y1330500D02*
D03*
X2675000Y1349500D02*
D03*
Y1340000D02*
D03*
X2700000Y1285000D02*
D03*
X2610000Y1338500D02*
D03*
X3210000Y1307500D02*
D03*
X3060000Y1292500D02*
D03*
X3050000Y1380000D02*
D03*
Y1290000D02*
D03*
Y1330500D02*
D03*
X3125000Y1349500D02*
D03*
Y1340000D02*
D03*
X3150000Y1285000D02*
D03*
X3060000Y1338500D02*
D03*
X3660000Y1307500D02*
D03*
X3510000Y1292500D02*
D03*
X3500000Y1380000D02*
D03*
Y1290000D02*
D03*
Y1330500D02*
D03*
X3575000Y1349500D02*
D03*
Y1340000D02*
D03*
X3600000Y1285000D02*
D03*
X3510000Y1338500D02*
D03*
X510000Y1757500D02*
D03*
X360000Y1742500D02*
D03*
X350000Y1830000D02*
D03*
Y1740000D02*
D03*
Y1780500D02*
D03*
X425000Y1799500D02*
D03*
Y1790000D02*
D03*
X450000Y1735000D02*
D03*
X360000Y1788500D02*
D03*
X960000Y1757500D02*
D03*
X810000Y1742500D02*
D03*
X800000Y1830000D02*
D03*
Y1740000D02*
D03*
Y1780500D02*
D03*
X875000Y1799500D02*
D03*
Y1790000D02*
D03*
X900000Y1735000D02*
D03*
X810000Y1788500D02*
D03*
X1410000Y1757500D02*
D03*
X1260000Y1742500D02*
D03*
X1250000Y1830000D02*
D03*
Y1740000D02*
D03*
Y1780500D02*
D03*
X1325000Y1799500D02*
D03*
Y1790000D02*
D03*
X1350000Y1735000D02*
D03*
X1260000Y1788500D02*
D03*
X1860000Y1757500D02*
D03*
X1710000Y1742500D02*
D03*
X1700000Y1830000D02*
D03*
Y1740000D02*
D03*
Y1780500D02*
D03*
X1775000Y1799500D02*
D03*
Y1790000D02*
D03*
X1800000Y1735000D02*
D03*
X1710000Y1788500D02*
D03*
X2310000Y1757500D02*
D03*
X2160000Y1742500D02*
D03*
X2150000Y1830000D02*
D03*
Y1740000D02*
D03*
Y1780500D02*
D03*
X2225000Y1799500D02*
D03*
Y1790000D02*
D03*
X2250000Y1735000D02*
D03*
X2160000Y1788500D02*
D03*
X2760000Y1757500D02*
D03*
X2610000Y1742500D02*
D03*
X2600000Y1830000D02*
D03*
Y1740000D02*
D03*
Y1780500D02*
D03*
X2675000Y1799500D02*
D03*
Y1790000D02*
D03*
X2700000Y1735000D02*
D03*
X2610000Y1788500D02*
D03*
X3210000Y1757500D02*
D03*
X3060000Y1742500D02*
D03*
X3050000Y1830000D02*
D03*
Y1740000D02*
D03*
Y1780500D02*
D03*
X3125000Y1799500D02*
D03*
Y1790000D02*
D03*
X3150000Y1735000D02*
D03*
X3060000Y1788500D02*
D03*
X3660000Y1757500D02*
D03*
X3510000Y1742500D02*
D03*
X3500000Y1830000D02*
D03*
Y1740000D02*
D03*
Y1780500D02*
D03*
X3575000Y1799500D02*
D03*
Y1790000D02*
D03*
X3600000Y1735000D02*
D03*
X3510000Y1788500D02*
D03*
X510000Y2207500D02*
D03*
X360000Y2192500D02*
D03*
X350000Y2280000D02*
D03*
Y2230500D02*
D03*
X425000Y2249500D02*
D03*
Y2240000D02*
D03*
X450000Y2185000D02*
D03*
X360000Y2238500D02*
D03*
X960000Y2207500D02*
D03*
X810000Y2192500D02*
D03*
X800000Y2280000D02*
D03*
Y2230500D02*
D03*
X875000Y2249500D02*
D03*
Y2240000D02*
D03*
X900000Y2185000D02*
D03*
X810000Y2238500D02*
D03*
X1410000Y2207500D02*
D03*
X1260000Y2192500D02*
D03*
X1250000Y2280000D02*
D03*
Y2190000D02*
D03*
Y2230500D02*
D03*
X1325000Y2249500D02*
D03*
Y2240000D02*
D03*
X1350000Y2185000D02*
D03*
X1260000Y2238500D02*
D03*
X1860000Y2207500D02*
D03*
X1710000Y2192500D02*
D03*
X1700000Y2280000D02*
D03*
Y2190000D02*
D03*
Y2230500D02*
D03*
X1775000Y2249500D02*
D03*
Y2240000D02*
D03*
X1800000Y2185000D02*
D03*
X1710000Y2238500D02*
D03*
X2310000Y2207500D02*
D03*
X2160000Y2192500D02*
D03*
X2150000Y2280000D02*
D03*
Y2190000D02*
D03*
Y2230500D02*
D03*
X2225000Y2249500D02*
D03*
Y2240000D02*
D03*
X2250000Y2185000D02*
D03*
X2160000Y2238500D02*
D03*
X2760000Y2207500D02*
D03*
X2610000Y2192500D02*
D03*
X2600000Y2280000D02*
D03*
Y2190000D02*
D03*
Y2230500D02*
D03*
X2675000Y2249500D02*
D03*
Y2240000D02*
D03*
X2700000Y2185000D02*
D03*
X2610000Y2238500D02*
D03*
X3210000Y2207500D02*
D03*
X3060000Y2192500D02*
D03*
X3050000Y2280000D02*
D03*
Y2190000D02*
D03*
Y2230500D02*
D03*
X3125000Y2249500D02*
D03*
Y2240000D02*
D03*
X3150000Y2185000D02*
D03*
X3060000Y2238500D02*
D03*
X3660000Y2207500D02*
D03*
X3510000Y2192500D02*
D03*
X3500000Y2280000D02*
D03*
Y2190000D02*
D03*
Y2230500D02*
D03*
X3575000Y2249500D02*
D03*
Y2240000D02*
D03*
X3600000Y2185000D02*
D03*
X3510000Y2238500D02*
D03*
X510000Y2657500D02*
D03*
X360000Y2642500D02*
D03*
X350000Y2730000D02*
D03*
Y2680500D02*
D03*
X425000Y2699500D02*
D03*
Y2690000D02*
D03*
X450000Y2635000D02*
D03*
X360000Y2688500D02*
D03*
X960000Y2657500D02*
D03*
X810000Y2642500D02*
D03*
X800000Y2730000D02*
D03*
Y2640000D02*
D03*
Y2680500D02*
D03*
X875000Y2699500D02*
D03*
Y2690000D02*
D03*
X900000Y2635000D02*
D03*
X810000Y2688500D02*
D03*
X1410000Y2657500D02*
D03*
X1260000Y2642500D02*
D03*
X1250000Y2730000D02*
D03*
Y2640000D02*
D03*
Y2680500D02*
D03*
X1325000Y2699500D02*
D03*
Y2690000D02*
D03*
X1350000Y2635000D02*
D03*
X1260000Y2688500D02*
D03*
X1860000Y2657500D02*
D03*
X1710000Y2642500D02*
D03*
X1700000Y2730000D02*
D03*
Y2640000D02*
D03*
Y2680500D02*
D03*
X1775000Y2699500D02*
D03*
Y2690000D02*
D03*
X1800000Y2635000D02*
D03*
X1710000Y2688500D02*
D03*
X2310000Y2657500D02*
D03*
X2150000Y2730000D02*
D03*
Y2640000D02*
D03*
Y2680500D02*
D03*
X2225000Y2699500D02*
D03*
Y2690000D02*
D03*
X2250000Y2635000D02*
D03*
X2160000Y2688500D02*
D03*
X2760000Y2657500D02*
D03*
X2610000Y2642500D02*
D03*
X2600000Y2730000D02*
D03*
Y2640000D02*
D03*
Y2680500D02*
D03*
X2675000Y2699500D02*
D03*
Y2690000D02*
D03*
X2700000Y2635000D02*
D03*
X2610000Y2688500D02*
D03*
X3210000Y2657500D02*
D03*
X3060000Y2642500D02*
D03*
X3050000Y2730000D02*
D03*
Y2640000D02*
D03*
Y2680500D02*
D03*
X3125000Y2699500D02*
D03*
Y2690000D02*
D03*
X3150000Y2635000D02*
D03*
X3060000Y2688500D02*
D03*
X510000Y3107500D02*
D03*
X350000Y3180000D02*
D03*
Y3090000D02*
D03*
Y3130500D02*
D03*
X425000Y3149500D02*
D03*
Y3140000D02*
D03*
X450000Y3085000D02*
D03*
X360000Y3138500D02*
D03*
X960000Y3107500D02*
D03*
X800000Y3180000D02*
D03*
Y3090000D02*
D03*
Y3130500D02*
D03*
X875000Y3149500D02*
D03*
Y3140000D02*
D03*
X900000Y3085000D02*
D03*
X810000Y3138500D02*
D03*
X1410000Y3107500D02*
D03*
X1260000Y3092500D02*
D03*
X1250000Y3180000D02*
D03*
Y3090000D02*
D03*
Y3130500D02*
D03*
X1325000Y3149500D02*
D03*
Y3140000D02*
D03*
X1350000Y3085000D02*
D03*
X1260000Y3138500D02*
D03*
X1860000Y3107500D02*
D03*
X1710000Y3092500D02*
D03*
X1700000Y3180000D02*
D03*
Y3090000D02*
D03*
Y3130500D02*
D03*
X1775000Y3149500D02*
D03*
Y3140000D02*
D03*
X1800000Y3085000D02*
D03*
X1710000Y3138500D02*
D03*
X2310000Y3107500D02*
D03*
X2160000Y3092500D02*
D03*
X2150000Y3180000D02*
D03*
Y3090000D02*
D03*
Y3130500D02*
D03*
X2225000Y3149500D02*
D03*
Y3140000D02*
D03*
X2250000Y3085000D02*
D03*
X2160000Y3138500D02*
D03*
X2760000Y3107500D02*
D03*
X2610000Y3092500D02*
D03*
X2600000Y3180000D02*
D03*
Y3090000D02*
D03*
Y3130500D02*
D03*
X2675000Y3149500D02*
D03*
Y3140000D02*
D03*
X2700000Y3085000D02*
D03*
X2610000Y3138500D02*
D03*
X3210000Y3107500D02*
D03*
X3060000Y3092500D02*
D03*
X3050000Y3180000D02*
D03*
Y3090000D02*
D03*
Y3130500D02*
D03*
X3125000Y3149500D02*
D03*
Y3140000D02*
D03*
X3150000Y3085000D02*
D03*
X3060000Y3138500D02*
D03*
X3660000Y3107500D02*
D03*
X3510000Y3092500D02*
D03*
X3500000Y3180000D02*
D03*
Y3090000D02*
D03*
Y3130500D02*
D03*
X3575000Y3149500D02*
D03*
Y3140000D02*
D03*
X3600000Y3085000D02*
D03*
X3510000Y3138500D02*
D03*
X510000Y3557500D02*
D03*
X360000Y3542500D02*
D03*
X350000Y3540000D02*
D03*
Y3580500D02*
D03*
X425000Y3599500D02*
D03*
Y3590000D02*
D03*
X450000Y3535000D02*
D03*
X360000Y3588500D02*
D03*
X960000Y3557500D02*
D03*
X810000Y3542500D02*
D03*
X800000Y3540000D02*
D03*
Y3580500D02*
D03*
X875000Y3599500D02*
D03*
Y3590000D02*
D03*
X900000Y3535000D02*
D03*
X810000Y3588500D02*
D03*
X1410000Y3557500D02*
D03*
X1260000Y3542500D02*
D03*
X1250000Y3540000D02*
D03*
Y3580500D02*
D03*
X1325000Y3599500D02*
D03*
Y3590000D02*
D03*
X1350000Y3535000D02*
D03*
X1260000Y3588500D02*
D03*
X1860000Y3557500D02*
D03*
X1710000Y3542500D02*
D03*
X1700000Y3540000D02*
D03*
Y3580500D02*
D03*
X1775000Y3599500D02*
D03*
Y3590000D02*
D03*
X1800000Y3535000D02*
D03*
X1710000Y3588500D02*
D03*
X2310000Y3557500D02*
D03*
X2160000Y3542500D02*
D03*
X2150000Y3540000D02*
D03*
Y3580500D02*
D03*
X2225000Y3599500D02*
D03*
Y3590000D02*
D03*
X2250000Y3535000D02*
D03*
X2160000Y3588500D02*
D03*
X2760000Y3557500D02*
D03*
X2610000Y3542500D02*
D03*
X2600000Y3540000D02*
D03*
Y3580500D02*
D03*
X2675000Y3599500D02*
D03*
Y3590000D02*
D03*
X2700000Y3535000D02*
D03*
X2610000Y3588500D02*
D03*
X3210000Y3557500D02*
D03*
X3060000Y3542500D02*
D03*
X3050000Y3540000D02*
D03*
Y3580500D02*
D03*
X3125000Y3599500D02*
D03*
Y3590000D02*
D03*
X3150000Y3535000D02*
D03*
X3060000Y3588500D02*
D03*
X3660000Y3557500D02*
D03*
X3510000Y3542500D02*
D03*
X3500000Y3540000D02*
D03*
Y3580500D02*
D03*
X3575000Y3599500D02*
D03*
Y3590000D02*
D03*
X3600000Y3535000D02*
D03*
X3510000Y3588500D02*
D03*
X3660000Y2657500D02*
D03*
X3510000Y2642500D02*
D03*
X3500000Y2730000D02*
D03*
Y2640000D02*
D03*
Y2680500D02*
D03*
X3575000Y2699500D02*
D03*
Y2690000D02*
D03*
X3600000Y2635000D02*
D03*
X3510000Y2688500D02*
D03*
X810000Y842500D02*
D03*
X350000Y2640000D02*
D03*
X2160000Y2642500D02*
D03*
X800000Y2190000D02*
D03*
X350000D02*
D03*
X810000Y3092500D02*
D03*
X360000D02*
D03*
X1595000Y152500D02*
D03*
M02*
