G04*
G04 #@! TF.GenerationSoftware,Altium Limited,Altium Designer,23.0.1 (38)*
G04*
G04 Layer_Color=32896*
%FSLAX44Y44*%
%MOMM*%
G71*
G04*
G04 #@! TF.SameCoordinates,ADC8DFE5-703F-4530-8304-E3B7B360FE1B*
G04*
G04*
G04 #@! TF.FilePolarity,Positive*
G04*
G01*
G75*
%ADD40C,0.5000*%
D40*
X610000Y400000D02*
G03*
X610000Y400000I-210000J0D01*
G01*
X1060000D02*
G03*
X1060000Y400000I-210000J0D01*
G01*
X1510000D02*
G03*
X1510000Y400000I-210000J0D01*
G01*
X2860000D02*
G03*
X2860000Y400000I-210000J0D01*
G01*
X3310000D02*
G03*
X3310000Y400000I-210000J0D01*
G01*
X3760000D02*
G03*
X3760000Y400000I-210000J0D01*
G01*
Y850000D02*
G03*
X3760000Y850000I-210000J0D01*
G01*
X3310000D02*
G03*
X3310000Y850000I-210000J0D01*
G01*
X2860000D02*
G03*
X2860000Y850000I-210000J0D01*
G01*
X2410000D02*
G03*
X2410000Y850000I-210000J0D01*
G01*
X1960000D02*
G03*
X1960000Y850000I-210000J0D01*
G01*
X1510000D02*
G03*
X1510000Y850000I-210000J0D01*
G01*
X1060000D02*
G03*
X1060000Y850000I-210000J0D01*
G01*
X610000D02*
G03*
X610000Y850000I-210000J0D01*
G01*
Y1750000D02*
G03*
X610000Y1750000I-210000J0D01*
G01*
X1060000D02*
G03*
X1060000Y1750000I-210000J0D01*
G01*
X1510000D02*
G03*
X1510000Y1750000I-210000J0D01*
G01*
X1960000D02*
G03*
X1960000Y1750000I-210000J0D01*
G01*
X2410000D02*
G03*
X2410000Y1750000I-210000J0D01*
G01*
X2860000D02*
G03*
X2860000Y1750000I-210000J0D01*
G01*
X3310000D02*
G03*
X3310000Y1750000I-210000J0D01*
G01*
X3760000D02*
G03*
X3760000Y1750000I-210000J0D01*
G01*
Y1300000D02*
G03*
X3760000Y1300000I-210000J0D01*
G01*
X3310000D02*
G03*
X3310000Y1300000I-210000J0D01*
G01*
X2860000D02*
G03*
X2860000Y1300000I-210000J0D01*
G01*
X2410000D02*
G03*
X2410000Y1300000I-210000J0D01*
G01*
X1960000D02*
G03*
X1960000Y1300000I-210000J0D01*
G01*
X1510000D02*
G03*
X1510000Y1300000I-210000J0D01*
G01*
X1060000D02*
G03*
X1060000Y1300000I-210000J0D01*
G01*
X610000D02*
G03*
X610000Y1300000I-210000J0D01*
G01*
Y3100000D02*
G03*
X610000Y3100000I-210000J0D01*
G01*
X1060000D02*
G03*
X1060000Y3100000I-210000J0D01*
G01*
X1510000D02*
G03*
X1510000Y3100000I-210000J0D01*
G01*
X1960000D02*
G03*
X1960000Y3100000I-210000J0D01*
G01*
X2410000D02*
G03*
X2410000Y3100000I-210000J0D01*
G01*
X2860000D02*
G03*
X2860000Y3100000I-210000J0D01*
G01*
X3310000D02*
G03*
X3310000Y3100000I-210000J0D01*
G01*
X3760000D02*
G03*
X3760000Y3100000I-210000J0D01*
G01*
Y3550000D02*
G03*
X3760000Y3550000I-210000J0D01*
G01*
X3310000D02*
G03*
X3310000Y3550000I-210000J0D01*
G01*
X2860000D02*
G03*
X2860000Y3550000I-210000J0D01*
G01*
X2410000D02*
G03*
X2410000Y3550000I-210000J0D01*
G01*
X1960000D02*
G03*
X1960000Y3550000I-210000J0D01*
G01*
X1510000D02*
G03*
X1510000Y3550000I-210000J0D01*
G01*
X1060000D02*
G03*
X1060000Y3550000I-210000J0D01*
G01*
X610000D02*
G03*
X610000Y3550000I-210000J0D01*
G01*
Y2650000D02*
G03*
X610000Y2650000I-210000J0D01*
G01*
X1060000D02*
G03*
X1060000Y2650000I-210000J0D01*
G01*
X1510000D02*
G03*
X1510000Y2650000I-210000J0D01*
G01*
X1960000D02*
G03*
X1960000Y2650000I-210000J0D01*
G01*
X2410000D02*
G03*
X2410000Y2650000I-210000J0D01*
G01*
X2860000D02*
G03*
X2860000Y2650000I-210000J0D01*
G01*
X3310000D02*
G03*
X3310000Y2650000I-210000J0D01*
G01*
X3760000D02*
G03*
X3760000Y2650000I-210000J0D01*
G01*
Y2200000D02*
G03*
X3760000Y2200000I-210000J0D01*
G01*
X3310000D02*
G03*
X3310000Y2200000I-210000J0D01*
G01*
X2860000D02*
G03*
X2860000Y2200000I-210000J0D01*
G01*
X2410000D02*
G03*
X2410000Y2200000I-210000J0D01*
G01*
X1960000D02*
G03*
X1960000Y2200000I-210000J0D01*
G01*
X1510000D02*
G03*
X1510000Y2200000I-210000J0D01*
G01*
X1060000D02*
G03*
X1060000Y2200000I-210000J0D01*
G01*
X610000D02*
G03*
X610000Y2200000I-210000J0D01*
G01*
X2410000Y400000D02*
G03*
X2410000Y400000I-210000J0D01*
G01*
X1960000D02*
G03*
X1960000Y400000I-210000J0D01*
G01*
M02*
