M48
;Layer_Color=9474304
;FILE_FORMAT=2:5
INCH,LZ
;TYPE=PLATED
T1F00S00C0.01181
;TYPE=NON_PLATED
T3F00S00C0.20079
%
T01
X0137795Y0153543
X0141732Y0154527
X0177165Y0151575
X0314961Y0153543
X0318898Y0154527
X0354331Y0151575
X0344488Y0043307
X0327264
X0435039
X0551181Y0041339
X0551181Y0029528
X0571063Y0031693
X057874Y0037992
X0599409Y0041339
X0602362Y0031496
X0610236
X0613189Y0041339
X0623032Y004626
X059252Y0056102
X0582677Y0058071
X0609252Y0076772
X0598425Y0090551
X0594488Y0108268
X0578937Y0112205
X0622047Y0090551
X0531496Y0151575
X0496063Y0154527
X0492126Y0153543
X0669291
X0673228Y0154527
X0708661Y0151575
X0651575Y0090551
Y0084646
Y007874
Y0072835
X0651575Y0066929
X0651575Y0061024
Y0055118
X0651575Y0049213
X0637795Y004626
X0638327Y0035433
X0649311Y0032146
X0653543Y0023622
X0661417Y0011811
X0627953Y0048228
Y0054134
X0627953Y0060039
X0755905Y0033465
X0767717
X0768307Y0029528
X0764961
Y0021654
X0768307
X0787008
X0790158
Y0029528
X0787008
X0791339Y0033465
X0811024Y0023622
X0811024Y0017717
Y0011811
Y0005906
X0846457Y0153543
X0850394Y0154527
X0885827Y0151575
X1023622Y0153543
X1027559Y0154527
X1062992Y0151575
X1200787Y0153543
X1204724Y0154527
X1240158Y0151575
X1377953Y0153543
X138189Y0154527
X1417323Y0151575
X140748Y0173228
Y0176969
X1440945Y0160433
X138189Y0172638
X1377953Y0169488
Y0188976
X126378Y0160433
X1230315Y0173228
Y0176969
X1204724Y0172638
X1200787Y0169488
Y0188976
X1086614Y0160433
X105315Y0173228
Y0176969
X1027559Y0172638
X1023622Y0169488
Y0188976
X0909449Y0160433
X0875984Y0173228
Y0176969
X0850394Y0172638
X0846457Y0169488
Y0188976
X0732283Y0160433
X0698819Y0173228
Y0176969
X0673228Y0172638
X0669291Y0169488
Y0188976
X0555118Y0160433
X0521654Y0173228
Y0176969
X0496063Y0172638
X0492126Y0169488
Y0188976
X0377953Y0160433
X0344488Y0173228
Y0176969
X0318898Y0172638
X0314961Y0169488
Y0188976
X0200787Y0160433
X0167323Y0173228
Y0176969
X0141732Y0172638
X0137795Y0169488
Y0188976
X0114173Y0177165
Y0354331
X0137795Y0346654
X0141732Y0349803
Y0331693
X0137795Y0330709
Y0366142
X0167323Y0354134
Y0350394
X0177165Y032874
X0200787Y0337598
X0314961Y0330709
X0318898Y0331693
Y0349803
X0314961Y0346654
Y0366142
X0344488Y0354134
Y0350394
X0354331Y032874
X0377953Y0337598
X0492126Y0330709
X0496063Y0331693
Y0349803
X0492126Y0346654
Y0366142
X0521654Y0354134
Y0350394
X0531496Y032874
X0555118Y0337598
X0669291Y0330709
X0673228Y0331693
Y0349803
X0669291Y0346654
Y0366142
X0698819Y0354134
Y0350394
X0708661Y032874
X0732283Y0337598
X0846457Y0330709
X0850394Y0331693
Y0349803
X0846457Y0346654
Y0366142
X0875984Y0354134
Y0350394
X0885827Y032874
X0909449Y0337598
X1023622Y0330709
X1027559Y0331693
Y0349803
X1023622Y0346654
Y0366142
X105315Y0354134
Y0350394
X1062992Y032874
X1086614Y0337598
X1200787Y0330709
X1204724Y0331693
Y0349803
X1200787Y0346654
Y0366142
X1230315Y0354134
Y0350394
X1240158Y032874
X126378Y0337598
X1377953Y0330709
X138189Y0331693
Y0349803
X1377953Y0346654
Y0366142
X140748Y0354134
Y0350394
X1417323Y032874
X1440945Y0337598
Y0514764
X1417323Y0505905
X140748Y0527559
Y0531299
X138189Y0526968
X1377953Y0523819
Y0507874
X138189Y0508858
X1377953Y0543307
X126378Y0514764
X1240158Y0505905
X1230315Y0527559
Y0531299
X1204724Y0526968
X1200787Y0523819
Y0507874
X1204724Y0508858
X1200787Y0543307
X1086614Y0514764
X1062992Y0505905
X105315Y0527559
Y0531299
X1027559Y0526968
X1023622Y0523819
Y0507874
X1027559Y0508858
X1023622Y0543307
X0909449Y0514764
X0885827Y0505905
X0875984Y0527559
Y0531299
X0850394Y0526968
X0846457Y0523819
Y0507874
X0850394Y0508858
X0846457Y0543307
X0732283Y0514764
X0708661Y0505905
X0698819Y0527559
Y0531299
X0673228Y0526968
X0669291Y0523819
Y0507874
X0673228Y0508858
X0669291Y0543307
X0555118Y0514764
X0531496Y0505905
X0521654Y0527559
Y0531299
X0496063Y0526968
X0492126Y0523819
Y0507874
X0496063Y0508858
X0492126Y0543307
X0377953Y0514764
X0354331Y0505905
X0344488Y0527559
Y0531299
X0318898Y0526968
X0314961Y0523819
Y0507874
X0318898Y0508858
X0314961Y0543307
X0200787Y0514764
X0177165Y0505905
X0167323Y0527559
Y0531299
X0141732Y0526968
X0137795Y0523819
Y0507874
X0141732Y0508858
X0137795Y0543307
X0114173Y0531496
X0137795Y0685039
X0141732Y0686024
Y0704134
X0137795Y0700984
Y0720472
X0114173Y0708661
X0167323Y0708465
Y0704724
X0177165Y0683071
X0200787Y0691929
X0314961Y0685039
X0318898Y0686024
Y0704134
X0314961Y0700984
Y0720472
X0344488Y0708465
Y0704724
X0354331Y0683071
X0377953Y0691929
X0492126Y0685039
X0496063Y0686024
Y0704134
X0492126Y0700984
Y0720472
X0521654Y0708465
Y0704724
X0531496Y0683071
X0555118Y0691929
X0669291Y0685039
X0673228Y0686024
Y0704134
X0669291Y0700984
Y0720472
X0698819Y0708465
Y0704724
X0708661Y0683071
X0732283Y0691929
X0846457Y0685039
X0850394Y0686024
Y0704134
X0846457Y0700984
Y0720472
X0875984Y0708465
Y0704724
X0885827Y0683071
X0909449Y0691929
X1023622Y0685039
X1027559Y0686024
Y0704134
X1023622Y0700984
Y0720472
X105315Y0708465
Y0704724
X1062992Y0683071
X1086614Y0691929
X1200787Y0685039
X1204724Y0686024
Y0704134
X1200787Y0700984
Y0720472
X1230315Y0708465
Y0704724
X1240158Y0683071
X126378Y0691929
X1377953Y0685039
X138189Y0686024
Y0704134
X1377953Y0700984
Y0720472
X140748Y0708465
Y0704724
X1417323Y0683071
X1440945Y0691929
Y0869094
X1417323Y0860236
X140748Y088189
Y088563
X138189Y0881299
X1377953Y087815
Y0862205
X138189Y0863189
X1377953Y0897638
X126378Y0869094
X1240158Y0860236
X1230315Y088189
Y088563
X1204724Y0881299
X1200787Y087815
Y0862205
X1204724Y0863189
X1200787Y0897638
X1086614Y0869094
X1062992Y0860236
X105315Y088189
Y088563
X1027559Y0881299
X1023622Y087815
Y0862205
X1027559Y0863189
X1023622Y0897638
X0909449Y0869094
X0885827Y0860236
X0875984Y088189
Y088563
X0850394Y0881299
X0846457Y087815
Y0862205
X0850394Y0863189
X0846457Y0897638
X0732283Y0869094
X0708661Y0860236
X0698819Y088189
Y088563
X0673228Y0881299
X0669291Y087815
Y0862205
X0673228Y0863189
X0669291Y0897638
X0555118Y0869094
X0531496Y0860236
X0521654Y088189
Y088563
X0496063Y0881299
X0492126Y087815
Y0862205
X0496063Y0863189
X0492126Y0897638
X0377953Y0869094
X0354331Y0860236
X0344488Y088189
Y088563
X0318898Y0881299
X0314961Y087815
Y0862205
X0318898Y0863189
X0314961Y0897638
X0200787Y0869094
X0177165Y0860236
X0167323Y088189
Y088563
X0141732Y0881299
X0137795Y087815
Y0862205
X0141732Y0863189
X0137795Y0897638
X0114173Y0885827
X0137795Y103937
X0141732Y1040354
Y1058465
X0137795Y1055315
Y1074803
X0114173Y1062992
X0167323Y1062795
Y1059055
X0177165Y1037401
X0200787Y104626
X0314961Y103937
X0318898Y1040354
Y1058465
X0314961Y1055315
Y1074803
X0344488Y1062795
Y1059055
X0354331Y1037401
X0377953Y104626
X0492126Y103937
X0496063Y1040354
Y1058465
X0492126Y1055315
Y1074803
X0521654Y1062795
Y1059055
X0531496Y1037401
X0555118Y104626
X0669291Y103937
X0673228Y1040354
Y1058465
X0669291Y1055315
Y1074803
X0698819Y1062795
Y1059055
X0708661Y1037401
X0732283Y104626
X0846457Y103937
X0850394Y1040354
Y1058465
X0846457Y1055315
Y1074803
X0875984Y1062795
Y1059055
X0885827Y1037401
X0909449Y104626
X1023622Y103937
X1027559Y1040354
Y1058465
X1023622Y1055315
Y1074803
X105315Y1062795
Y1059055
X1062992Y1037401
X1086614Y104626
X1200787Y103937
X1204724Y1040354
Y1058465
X1200787Y1055315
Y1074803
X1230315Y1062795
Y1059055
X1240158Y1037401
X126378Y104626
X1377953Y103937
X138189Y1040354
Y1058465
X1377953Y1055315
Y1074803
X140748Y1062795
Y1059055
X1417323Y1037401
X1440945Y104626
Y1223425
X1417323Y1214567
X140748Y123622
Y1239961
X138189Y123563
X1377953Y123248
Y1216535
X138189Y121752
X126378Y1223425
X1240158Y1214567
X1230315Y123622
Y1239961
X1204724Y123563
X1200787Y123248
Y1216535
X1204724Y121752
X1086614Y1223425
X1062992Y1214567
X105315Y123622
Y1239961
X1027559Y123563
X1023622Y123248
Y1216535
X1027559Y121752
X0909449Y1223425
X0885827Y1214567
X0875984Y123622
Y1239961
X0850394Y123563
X0846457Y123248
Y1216535
X0850394Y121752
X0732283Y1223425
X0708661Y1214567
X0698819Y123622
Y1239961
X0673228Y123563
X0669291Y123248
Y1216535
X0673228Y121752
X0555118Y1223425
X0531496Y1214567
X0521654Y123622
Y1239961
X0496063Y123563
X0492126Y123248
Y1216535
X0496063Y121752
X0377953Y1223425
X0354331Y1214567
X0344488Y123622
Y1239961
X0318898Y123563
X0314961Y123248
Y1216535
X0318898Y121752
X0200787Y1223425
X0177165Y1214567
X0167323Y123622
Y1239961
X0141732Y123563
X0137795Y123248
Y1216535
X0141732Y121752
X0114173Y1240158
X0137795Y1251968
Y1393701
X0141732Y1394685
X0177165Y1391732
X0200787Y1400591
X0314961Y1393701
X0318898Y1394685
X0354331Y1391732
X0377953Y1400591
X0314961Y1251968
X0492126
Y1393701
X0496063Y1394685
X0531496Y1391732
X0555118Y1400591
X0669291Y1393701
X0673228Y1394685
X0708661Y1391732
X0732283Y1400591
X0669291Y1251968
X0846457
Y1393701
X0850394Y1394685
X0885827Y1391732
X0909449Y1400591
X1023622Y1393701
X1027559Y1394685
X1062992Y1391732
X1086614Y1400591
X1023622Y1251968
X1200787
Y1393701
X1204724Y1394685
X1240158Y1391732
X126378Y1400591
X1377953Y1393701
X138189Y1394685
X1377953Y1251968
X1417323Y1391732
X1440945Y1400591
X140748Y1413386
Y1417126
X138189Y1412795
X1377953Y1409646
X1230315Y1413386
Y1417126
X1204724Y1412795
X1200787Y1409646
X105315Y1413386
Y1417126
X1027559Y1412795
X1023622Y1409646
X0875984Y1413386
Y1417126
X0850394Y1412795
X0846457Y1409646
X0698819Y1413386
Y1417126
X0673228Y1412795
X0669291Y1409646
X0521654Y1413386
Y1417126
X0496063Y1412795
X0492126Y1409646
X0344488Y1413386
Y1417126
X0318898Y1412795
X0314961Y1409646
X0167323Y1413386
Y1417126
X0141732Y1412795
X0137795Y1409646
X0114173Y1417323
T03
X0059055Y0059055
X1496063
Y1496063
X0059055
M30
